<svg width="90" height="90" viewBox="0 0 90 90" fill="none" xmlns="http://www.w3.org/2000/svg">
<g clip-path="url(#clip0_110_2426)">
<path d="M57.2398 31.9412L46.8079 45.7545L36.3763 59.57C36.3763 59.57 60.7152 55.1218 70.6693 79.6131C70.6693 79.6131 75.7954 76.5931 80.1818 70.7848C84.5683 64.9765 86.0614 59.2318 86.0614 59.2318C59.6879 56.4796 57.2398 31.9412 57.2398 31.9412Z" fill="#77B255"/>
<path d="M43.151 54.3642C51.3361 54.8264 65.418 62.5514 65.418 62.5514L43.6248 46.2066C36.3612 40.759 43.151 54.3642 43.151 54.3642ZM53.6718 25.365C53.6718 25.365 58.6232 48.9425 71.7856 61.6525C51.8077 46.6692 49.0962 38.959 49.0962 38.959L53.6718 25.365Z" fill="#5C913B"/>
<path d="M63.5107 15.162C63.4611 14.4104 63.2498 13.6784 62.8912 13.0156C62.5326 12.3529 62.0351 11.7749 61.4324 11.321C60.3086 10.4782 58.8946 10.1152 57.5013 10.3119C56.1081 10.5086 54.8497 11.2488 54.0031 12.3698C53.8433 12.5815 53.7215 12.8101 53.5972 13.0368C53.2448 12.1417 52.6518 11.3608 51.8832 10.7799C51.1345 10.224 50.2501 9.8779 49.3216 9.77744C48.967 8.91658 48.3886 8.16566 47.646 7.60191C46.5221 6.75911 45.1081 6.39614 43.7148 6.59281C42.3216 6.78949 41.0632 7.52971 40.2166 8.65065C39.4474 8.07395 38.5351 7.71696 37.5774 7.61792C36.6197 7.5189 35.6528 7.68157 34.7803 8.08852C33.9079 8.49546 33.1628 9.13134 32.6249 9.92795C32.087 10.7246 31.7766 11.6519 31.727 12.6105C30.682 12.2747 29.5578 12.2715 28.5102 12.6012C27.4627 12.9308 26.5437 13.5771 25.8806 14.4505C25.303 15.2215 24.9493 16.1359 24.8584 17.0936C24.6762 16.9102 24.4959 16.7242 24.2837 16.565C23.1599 15.7222 21.7458 15.3593 20.3525 15.5559C18.9593 15.7526 17.701 16.4928 16.8544 17.6138C16.1949 18.4901 15.8255 19.5491 15.7976 20.6438C15.7696 21.7384 16.0845 22.8142 16.6985 23.7216C15.476 24.1398 14.4496 24.9907 13.8141 26.1128C13.1787 27.235 12.9783 28.5502 13.2512 29.8089C12.4971 29.8591 11.7625 30.0703 11.0973 30.4284C10.4321 30.7864 9.85189 31.2829 9.39596 31.884C8.54943 33.0051 8.18398 34.4149 8.38 35.8035C8.57602 37.1922 9.31746 38.4458 10.4412 39.2887C9.78174 40.1649 9.41236 41.224 9.38443 42.3186C9.35649 43.4133 9.6714 44.4891 10.2854 45.3965C9.12088 45.7971 8.13214 46.5891 7.4887 47.6364C6.84526 48.6837 6.58721 49.9213 6.75879 51.1368C6.93037 52.3522 7.5209 53.47 8.42911 54.2983C9.33732 55.1266 10.5066 55.6139 11.7365 55.6765C11.3987 56.7185 11.3944 57.8391 11.7242 58.883C12.054 59.9269 12.7015 60.8424 13.577 61.5025C14.3499 62.0777 15.267 62.4294 16.2277 62.5191C16.0435 62.7008 15.8568 62.8807 15.6969 63.0924C14.8503 64.2134 14.4849 65.6233 14.6809 67.012C14.8769 68.4006 15.6184 69.6542 16.7421 70.4971C17.6198 71.1543 18.6814 71.5223 19.7793 71.55C20.8772 71.5777 21.9567 71.2636 22.8678 70.6515C23.1808 71.5589 23.7357 72.3641 24.4731 72.9807C25.2105 73.5973 26.1025 74.002 27.0536 74.1516C28.0046 74.3011 28.9787 74.1898 29.8716 73.8295C30.7644 73.4693 31.5423 72.8737 32.1218 72.1066C32.7256 71.3071 33.0496 70.3913 33.1441 69.4634C33.3263 69.6469 33.5065 69.8328 33.7188 69.992C34.488 70.5687 35.4003 70.9257 36.358 71.0247C37.3157 71.1237 38.2826 70.9611 39.1551 70.5541C40.0275 70.1472 40.7727 69.5113 41.3106 68.7147C41.8485 67.9181 42.1588 66.9908 42.2084 66.0321C43.2534 66.3679 44.3776 66.3712 45.4252 66.0415C46.4727 65.7118 47.3917 65.0655 48.0548 64.1922C48.7143 63.3159 49.0837 62.2568 49.1116 61.1622C49.1395 60.0676 48.8246 58.9918 48.2107 58.0844C49.1683 57.7582 50.0114 57.1634 50.6386 56.3714C51.2659 55.5795 51.6505 54.6241 51.7464 53.62C51.9286 53.8035 52.1089 53.9894 52.3212 54.1486C53.445 54.9914 54.859 55.3544 56.2523 55.1577C57.6455 54.961 58.9039 54.2208 59.7505 53.0999C60.4099 52.2236 60.7793 51.1645 60.8073 50.0699C60.8352 48.9753 60.5203 47.8995 59.9063 46.9921C60.5998 46.7547 61.2362 46.3761 61.775 45.8803C62.3138 45.3845 62.7433 44.7823 63.036 44.1122C63.3286 43.442 63.4782 42.7186 63.475 41.988C63.4719 41.2574 63.3161 40.5356 63.0176 39.8685C63.1818 39.7029 63.3494 39.5458 63.4942 39.354C64.4535 38.0837 64.7297 36.5294 64.428 35.0878C65.1821 35.0377 65.9166 34.8264 66.5818 34.4684C67.247 34.1103 67.8273 33.6139 68.2832 33.0127C69.1297 31.8917 69.4952 30.4818 69.2991 29.0932C69.1031 27.7046 68.3617 26.4509 67.2379 25.6081C67.0257 25.4489 66.7965 25.3277 66.5692 25.204C67.4377 24.8567 68.2311 24.293 68.8349 23.4935C69.6814 22.3725 70.0469 20.9626 69.8509 19.574C69.6548 18.1854 68.9134 16.9317 67.7896 16.0889C66.5162 15.1338 64.9571 14.8599 63.5107 15.162Z" fill="#3E721D"/>
<path d="M23.5416 63.6069C23.2792 61.7477 21.5543 60.454 19.6889 60.7173C17.8235 60.9806 16.5241 62.7013 16.7865 64.5604C17.049 66.4196 18.7739 67.7133 20.6393 67.45C22.5047 67.1867 23.8041 65.466 23.5416 63.6069Z" fill="#5C913B"/>
<path d="M22.1969 54.0844C21.9345 52.2252 20.2095 50.9315 18.3442 51.1948C16.4788 51.4582 15.1793 53.1788 15.4418 55.038C15.7042 56.8971 17.4292 58.1908 19.2946 57.9275C21.1599 57.6642 22.4594 55.9436 22.1969 54.0844Z" fill="#5C913B"/>
<path d="M14.9332 48.6361C14.6708 46.777 12.9459 45.4833 11.0805 45.7466C9.2151 46.0099 7.91567 47.7305 8.17812 49.5897C8.44057 51.4489 10.1655 52.7426 12.0309 52.4793C13.8963 52.2159 15.1957 50.4953 14.9332 48.6361Z" fill="#5C913B"/>
<path d="M18.5895 40.0278C18.327 38.1686 16.6021 36.8749 14.7367 37.1382C12.8714 37.4015 11.5719 39.1222 11.8344 40.9813C12.0968 42.8405 13.8218 44.1342 15.6871 43.8709C17.5525 43.6075 18.8519 41.8869 18.5895 40.0278Z" fill="#5C913B"/>
<path d="M17.694 33.6811C17.4315 31.8219 15.7066 30.5282 13.8412 30.7915C11.9758 31.0548 10.6764 32.7755 10.9389 34.6346C11.2013 36.4938 12.9262 37.7875 14.7916 37.5242C16.657 37.2609 17.9564 35.5402 17.694 33.6811Z" fill="#5C913B"/>
<path d="M22.2457 31.4184C21.9833 29.5592 20.2584 28.2655 18.393 28.5288C16.5276 28.7922 15.2282 30.5128 15.4906 32.3719C15.7531 34.2311 17.478 35.5248 19.3434 35.2615C21.2088 34.9982 22.5082 33.2775 22.2457 31.4184Z" fill="#5C913B"/>
<path d="M23.1657 26.434C22.9032 24.5748 21.1783 23.2811 19.3129 23.5445C17.4475 23.8078 16.1481 25.5284 16.4105 27.3876C16.673 29.2467 18.3979 30.5404 20.2633 30.2771C22.1287 30.0138 23.4281 28.2932 23.1657 26.434Z" fill="#5C913B"/>
<path d="M25.4547 19.6371C25.1923 17.778 23.4673 16.4843 21.602 16.7476C19.7366 17.0109 18.4372 18.7315 18.6996 20.5907C18.9621 22.4499 20.687 23.7436 22.5524 23.4802C24.4177 23.2169 25.7172 21.4963 25.4547 19.6371Z" fill="#5C913B"/>
<path d="M30.4547 20.5492C30.1923 18.6901 28.4673 17.3964 26.602 17.6597C24.7366 17.923 23.4372 19.6436 23.6996 21.5028C23.962 23.362 25.687 24.6557 27.5524 24.3924C29.4177 24.129 30.7172 22.4084 30.4547 20.5492Z" fill="#5C913B"/>
<path d="M37.7438 14.6654C37.4813 12.8063 35.7564 11.5126 33.891 11.7759C32.0257 12.0392 30.7262 13.7598 30.9887 15.619C31.2511 17.4782 32.9761 18.7719 34.8414 18.5086C36.7068 18.2452 38.0062 16.5246 37.7438 14.6654Z" fill="#5C913B"/>
<path d="M45.4811 11.9555C45.2186 10.0963 43.4937 8.80262 41.6283 9.06594C39.763 9.32926 38.4635 11.0499 38.726 12.9091C38.9884 14.7682 40.7134 16.0619 42.5787 15.7986C44.4441 15.5353 45.7435 13.8147 45.4811 11.9555Z" fill="#5C913B"/>
<path d="M31.3502 26.8979C31.0878 25.0387 29.3628 23.745 27.4975 24.0083C25.6321 24.2716 24.3327 25.9923 24.5951 27.8514C24.8576 29.7106 26.5825 31.0043 28.4479 30.741C30.3132 30.4777 31.6127 28.757 31.3502 26.8979Z" fill="#5C913B"/>
<path d="M25.8786 34.143C25.6161 32.2838 23.8912 30.9901 22.0258 31.2534C20.1604 31.5168 18.861 33.2374 19.1234 35.0966C19.3859 36.9557 21.1108 38.2494 22.9762 37.9861C24.8416 37.7228 26.141 36.0022 25.8786 34.143Z" fill="#5C913B"/>
<path d="M22.2223 42.7524C21.9599 40.8932 20.2349 39.5995 18.3695 39.8628C16.5042 40.1261 15.2047 41.8468 15.4672 43.7059C15.7296 45.5651 17.4546 46.8588 19.3199 46.5955C21.1853 46.3322 22.4847 44.6115 22.2223 42.7524Z" fill="#5C913B"/>
<path d="M26.7496 51.8237C26.4872 49.9645 24.7623 48.6708 22.8969 48.9341C21.0315 49.1974 19.7321 50.918 19.9945 52.7772C20.257 54.6364 21.9819 55.9301 23.8473 55.6668C25.7127 55.4034 27.0121 53.6828 26.7496 51.8237Z" fill="#5C913B"/>
<path d="M23.1188 49.099C22.8563 47.2399 21.1314 45.9462 19.266 46.2095C17.4007 46.4728 16.1012 48.1934 16.3637 50.0526C16.6261 51.9118 18.3511 53.2055 20.2164 52.9422C22.0818 52.6788 23.3812 50.9582 23.1188 49.099Z" fill="#5C913B"/>
<path d="M30.8307 57.7231C30.5683 55.8639 28.8433 54.5702 26.9779 54.8335C25.1126 55.0968 23.8131 56.8175 24.0756 58.6766C24.338 60.5358 26.063 61.8295 27.9283 61.5662C29.7937 61.3029 31.0931 59.5822 30.8307 57.7231Z" fill="#5C913B"/>
<path d="M31.775 41.4037C31.5126 39.5446 29.7877 38.2509 27.9223 38.5142C26.0569 38.7775 24.7575 40.4981 25.0199 42.3573C25.2824 44.2165 27.0073 45.5102 28.8727 45.2468C30.7381 44.9835 32.0375 43.2629 31.775 41.4037Z" fill="#5C913B"/>
<path d="M41.3512 28.7221C41.0888 26.8629 39.3638 25.5692 37.4984 25.8325C35.6331 26.0959 34.3336 27.8165 34.5961 29.6757C34.8585 31.5348 36.5835 32.8285 38.4488 32.5652C40.3142 32.3019 41.6137 30.5813 41.3512 28.7221Z" fill="#5C913B"/>
<path d="M50.4577 24.2006C50.1952 22.3414 48.4703 21.0477 46.6049 21.3111C44.7395 21.5744 43.4401 23.295 43.7025 25.1542C43.965 27.0133 45.6899 28.307 47.5553 28.0437C49.4207 27.7804 50.7201 26.0598 50.4577 24.2006Z" fill="#5C913B"/>
</g>
<defs>
<clipPath id="clip0_110_2426">
<rect width="79.3192" height="79.5837" fill="white" transform="translate(11.0869 89.6641) rotate(-98.0349)"/>
</clipPath>
</defs>
</svg>
