<svg width="167" height="158" viewBox="0 0 167 158" fill="none" xmlns="http://www.w3.org/2000/svg">
<g clip-path="url(#clip0_101_2402)">
<path d="M79.986 37.1231V52.7592H80.2278H106.699H106.978V36.6737C109.646 35.8663 111.933 33.9932 113 31.3154C114.857 26.6677 112.377 21.4709 107.467 19.7135C106.076 19.2156 104.645 19.0811 103.26 19.1968C102.176 16.7316 100.091 14.6674 97.2353 13.6474C92.2488 11.8658 86.7674 13.887 84.2471 18.166C79.858 17.9507 75.6253 20.3648 73.9954 24.4662C71.9616 29.5365 74.6525 35.1827 79.986 37.1231Z" fill="#010002"/>
<path d="M109.788 154.892H40V170.999H147.495V154.892H109.788Z" fill="#010002"/>
<path d="M88.9258 70.2304L94.9107 76.4229L101.109 70.7256C98.0795 70.3811 93.7729 70.0608 88.9258 70.2304Z" fill="#010002"/>
<path d="M81.2146 119.532L74.254 130.943H68.875H65.9281H57.7216V133.556H54.7263C53.7136 133.556 52.8887 134.339 52.8887 135.295C52.8887 136.255 53.7136 137.033 54.7263 137.033H57.7216V151.835H100.515V137.033H103.504C104.52 137.033 105.348 136.255 105.348 135.295C105.348 134.339 104.52 133.556 103.504 133.556H100.515V130.943H76.6008L83.1802 120.148C83.4874 120.245 83.8145 120.347 84.1132 120.439C95.0163 123.816 99.6501 107.602 88.8294 104.246C81.6271 102.02 70.6329 98.8606 66.0049 92.8241C66.0817 92.7622 66.1613 92.6976 66.2609 92.6357C67.2508 91.9952 68.3289 91.465 69.4439 90.9941V92.3908C70.5419 93.2143 71.5574 93.906 72.425 94.3581C77.0644 97.7787 84.5001 100.069 89.7625 101.689L90.8747 102.031C97.7584 104.165 99.9857 110.131 99.1523 115.094C98.1851 120.818 93.6026 124.815 88.0045 124.815C86.7273 124.815 85.4075 124.61 84.0876 124.199C83.8799 124.137 83.641 124.059 83.4362 123.994L80.5291 128.494H102.819V131.107H103.59C105.826 131.107 107.649 132.832 107.649 134.947C107.649 137.063 105.826 138.785 103.59 138.785H102.819V152.443H115.275V92.0194C115.426 92.1351 115.585 92.2374 115.736 92.3612C122.159 97.6468 121.542 106.845 120.569 114.058C119.124 124.769 136.879 124.645 138.307 114.058C139.949 101.91 137.81 89.3847 128.28 80.4955C122.321 74.9462 114.336 72.3492 106.113 71.4584L97.639 79.2522L104.935 86.8011L101.948 89.3847L83.8003 70.6025C81.5389 70.8528 79.2377 71.2135 76.9421 71.7544C64.1531 74.1684 44.7306 80.1241 48.144 95.6553C51.0454 108.84 68.6503 115.522 81.2146 119.532Z" fill="#010002"/>
<path d="M106.736 54.5811H80.1875C80.1875 61.5191 86.1354 67.1411 93.463 67.1411C100.799 67.1411 106.736 61.5191 106.736 54.5811Z" fill="#010002"/>
<path d="M69.9813 119.343L69.9443 128.493H73.0591L77.1894 121.98C74.9109 121.21 72.4077 120.341 69.9813 119.343Z" fill="#010002"/>
<path d="M54.2564 115.675C54.0573 116.545 54.1995 117.476 54.4982 118.31C54.831 119.139 55.3544 119.849 55.9233 120.476C56.5406 121.093 57.1351 121.542 57.5788 122.01C58.0766 122.476 58.4635 122.993 58.7309 123.496C58.9698 124.002 59.0552 124.516 58.7906 125.086C58.5517 125.668 58.0141 126.209 57.3883 126.696C58.2075 126.631 59.021 126.308 59.6895 125.673C60.3608 125.041 60.6339 123.935 60.3921 123.033C59.991 121.23 58.472 120.005 57.5731 119.08C56.6288 118.124 56.0143 117.05 55.9745 115.847C55.9432 114.639 56.515 113.291 57.3883 112.01C55.9148 112.631 54.629 113.923 54.2564 115.675Z" fill="#010002"/>
<path d="M62.5035 120.643C62.3669 121.227 62.4665 121.854 62.6656 122.416C62.8932 122.976 63.2459 123.46 63.6299 123.88C64.048 124.303 64.4491 124.61 64.7506 124.922C65.0891 125.237 65.348 125.589 65.53 125.931C65.6922 126.273 65.7462 126.62 65.5699 126.999C65.4106 127.392 65.0465 127.761 64.6226 128.089C65.1745 128.041 65.7263 127.826 66.1786 127.395C66.628 126.967 66.8158 126.216 66.6536 125.608C66.3834 124.389 65.3537 123.557 64.7478 122.933C64.1049 122.287 63.6896 121.56 63.6669 120.748C63.6441 119.924 64.0281 119.009 64.6255 118.143C63.6242 118.576 62.7538 119.448 62.5035 120.643Z" fill="#010002"/>
</g>
<defs>
<clipPath id="clip0_101_2402">
<rect width="167" height="158" fill="white"/>
</clipPath>
</defs>
</svg>
