<svg width="158" height="348" viewBox="0 0 158 348" fill="none" xmlns="http://www.w3.org/2000/svg">
<path opacity="0.1" d="M108.483 334.967C129.621 343.643 152.262 348.072 175.111 347.999L174.742 232.462C167.065 232.487 159.458 230.999 152.355 228.084C145.253 225.168 138.794 220.883 133.348 215.471C127.902 210.06 123.575 203.629 120.614 196.545C117.654 189.461 116.117 181.864 116.093 174.186C116.068 166.509 117.556 158.902 120.471 151.799C123.387 144.697 127.672 138.238 133.084 132.792C138.495 127.346 144.926 123.019 152.01 120.058C159.094 117.098 166.691 115.561 174.369 115.537L173.999 0.000474199C151.15 0.0734888 128.538 4.64644 107.455 13.4581C86.3726 22.2698 67.232 35.1478 51.1263 51.3568C35.0206 67.5657 22.2652 86.7882 13.5884 107.927C4.9116 129.065 0.483278 151.706 0.556308 174.556C0.629322 197.405 5.20224 220.017 14.014 241.1C22.8257 262.182 35.7037 281.323 51.9126 297.429C68.1215 313.534 87.344 326.29 108.483 334.967Z" fill="#CE4A39"/>
</svg>
