<svg width="172" height="379" viewBox="0 0 172 379" fill="none" xmlns="http://www.w3.org/2000/svg">
<path opacity="0.1" d="M64.5869 14.4248C43.4763 4.90156 20.85 0 -2 0V125.829C5.67749 125.829 13.2798 127.476 20.3729 130.676C27.4659 133.875 33.9109 138.565 39.3397 144.478C44.7685 150.39 49.0748 157.409 52.0129 165.134C54.9509 172.859 56.4631 181.139 56.4631 189.5C56.4631 197.861 54.951 206.141 52.0129 213.866C49.0749 221.591 44.7685 228.61 39.3397 234.522C33.9109 240.435 27.466 245.125 20.3729 248.324C13.2798 251.524 5.67749 253.171 -2 253.171V379C20.85 379 43.4763 374.098 64.5869 364.575C85.6976 355.052 104.879 341.093 121.037 323.497C137.194 305.9 150.011 285.01 158.755 262.018C167.499 239.027 172 214.386 172 189.5C172 164.615 167.499 139.973 158.755 116.981C150.011 93.9903 137.194 73.1 121.037 55.5033C104.879 37.9066 85.6976 23.9481 64.5869 14.4248Z" fill="#CE4A39"/>
</svg>
