<svg width="122" height="155" viewBox="0 0 122 155" fill="none" xmlns="http://www.w3.org/2000/svg">
<path d="M99.8955 107.272V10.2821C99.8955 4.61246 96.265 0 91.8023 0H30.1985C25.7359 0 22.1055 4.61246 22.1055 10.2821V144.718C22.1055 150.387 25.7359 155 30.1985 155H91.8025C96.265 155 99.8955 150.387 99.8955 144.718V113.412H96.2717V144.718C96.2717 147.849 94.2668 150.396 91.8025 150.396H30.1985C27.7341 150.396 25.7292 147.849 25.7292 144.718V60.1594H96.2719V107.272H99.8955ZM25.729 55.5554V10.2821C25.729 7.15119 27.7339 4.60398 30.1982 4.60398H91.8023C94.2666 4.60398 96.2715 7.15119 96.2715 10.2821V46.3465H70.9057V50.9505H96.2715V55.5554H25.729Z" fill="black"/>
<path d="M66.0736 46.3467H53.5088V50.9507H66.0736V46.3467Z" fill="black"/>
<path d="M35.3933 98.3729V72.438H38.4123V67.834H31.7695V98.3729H35.3933Z" fill="black"/>
<path d="M31.7695 48.6481H35.3933V31.9223H38.4123V27.3184H31.7695V48.6481Z" fill="black"/>
</svg>
