<?xml version="1.0" encoding="UTF-8"?>
<!DOCTYPE svg PUBLIC "-//W3C//DTD SVG 1.1//EN" "http://www.w3.org/Graphics/SVG/1.1/DTD/svg11.dtd">
<svg xmlns="http://www.w3.org/2000/svg" version="1.1" width="646px" height="250px" style="shape-rendering:geometricPrecision; text-rendering:geometricPrecision; image-rendering:optimizeQuality; fill-rule:evenodd; clip-rule:evenodd" xmlns:xlink="http://www.w3.org/1999/xlink">
<g><path style="opacity:1" fill="#999998" d="M 645.5,45.5 C 645.5,98.1667 645.5,150.833 645.5,203.5C 642.255,211.908 636.255,217.408 627.5,220C 424.167,220.667 220.833,220.667 17.5,220C 8.74455,217.408 2.74455,211.908 -0.5,203.5C -0.5,150.833 -0.5,98.1667 -0.5,45.5C 2.74455,37.0923 8.74455,31.5923 17.5,29C 220.833,28.3333 424.167,28.3333 627.5,29C 636.255,31.5923 642.255,37.0923 645.5,45.5 Z"/></g>
<g><path style="opacity:1" fill="#060909" d="M 18.5,32.5 C 221.167,32.3333 423.834,32.5 626.5,33C 633.667,35.5 638.5,40.3333 641,47.5C 641.667,98.5 641.667,149.5 641,200.5C 638.93,208.237 634.097,213.404 626.5,216C 423.833,216.667 221.167,216.667 18.5,216C 10.8762,213.378 6.04282,208.212 4,200.5C 3.33333,149.5 3.33333,98.5 4,47.5C 6.7143,40.4044 11.5476,35.4044 18.5,32.5 Z"/></g>
<g><path style="opacity:1" fill="#fafafa" d="M 200.5,61.5 C 206.732,60.9386 212.732,61.772 218.5,64C 226.5,72.3333 226.5,80.6667 218.5,89C 212.732,91.228 206.732,92.0614 200.5,91.5C 200.5,81.5 200.5,71.5 200.5,61.5 Z"/></g>
<g><path style="opacity:1" fill="#fefffe" d="M 230.5,61.5 C 231.833,61.5 233.167,61.5 234.5,61.5C 234.5,71.5 234.5,81.5 234.5,91.5C 233.167,91.5 231.833,91.5 230.5,91.5C 230.5,81.5 230.5,71.5 230.5,61.5 Z"/></g>
<g><path style="opacity:1" fill="#eeeeee" d="M 246.5,60.5 C 252.138,59.8177 256.471,61.8177 259.5,66.5C 258.372,67.2621 257.205,67.9288 256,68.5C 253.336,64.1653 250.003,63.4987 246,66.5C 245.08,69.3083 245.913,71.4749 248.5,73C 254.732,73.5875 258.732,76.7542 260.5,82.5C 260.141,89.0244 256.641,92.3578 250,92.5C 245.178,92.0154 242.012,89.5154 240.5,85C 240.667,83.5 241.5,82.6667 243,82.5C 245.074,85.0779 247.574,87.0779 250.5,88.5C 256.316,87.5612 257.649,84.7279 254.5,80C 250.714,78.6074 247.048,76.9407 243.5,75C 240.209,69.1693 241.209,64.336 246.5,60.5 Z"/></g>
<g><path style="opacity:1" fill="#eeeeee" d="M 266.5,61.5 C 272.732,60.9386 278.732,61.772 284.5,64C 287.167,68.3333 287.167,72.6667 284.5,77C 280.414,79.0532 276.08,79.8866 271.5,79.5C 271.5,83.5 271.5,87.5 271.5,91.5C 269.833,91.5 268.167,91.5 266.5,91.5C 266.5,81.5 266.5,71.5 266.5,61.5 Z"/></g>
<g><path style="opacity:1" fill="#eeeded" d="M 301.5,60.5 C 315.334,60.1658 321.834,66.8325 321,80.5C 316.205,91.3174 308.371,94.484 297.5,90C 287.083,78.5007 288.416,68.6674 301.5,60.5 Z"/></g>
<g><path style="opacity:1" fill="#f9f9f9" d="M 345.5,81.5 C 345.783,82.2891 346.283,82.9558 347,83.5C 347.5,76.1742 347.666,68.8409 347.5,61.5C 348.833,61.5 350.167,61.5 351.5,61.5C 351.5,71.5 351.5,81.5 351.5,91.5C 349.533,91.7394 347.699,91.4061 346,90.5C 341.917,83.3324 337.584,76.3324 333,69.5C 332.5,76.8258 332.334,84.1591 332.5,91.5C 331.167,91.5 329.833,91.5 328.5,91.5C 328.5,81.5 328.5,71.5 328.5,61.5C 330.467,61.2606 332.301,61.5939 334,62.5C 337.845,68.8611 341.678,75.1945 345.5,81.5 Z"/></g>
<g><path style="opacity:1" fill="#949292" d="M 347.5,61.5 C 347.666,68.8409 347.5,76.1742 347,83.5C 346.283,82.9558 345.783,82.2891 345.5,81.5C 346.167,74.8333 346.833,68.1667 347.5,61.5 Z"/></g>
<g><path style="opacity:1" fill="#fefffe" d="M 359.5,61.5 C 360.833,61.5 362.167,61.5 363.5,61.5C 363.5,71.5 363.5,81.5 363.5,91.5C 362.167,91.5 360.833,91.5 359.5,91.5C 359.5,81.5 359.5,71.5 359.5,61.5 Z"/></g>
<g><path style="opacity:1" fill="#f2f1f1" d="M 370.5,61.5 C 375.179,61.3342 379.845,61.5008 384.5,62C 390.059,63.4579 391.892,66.9579 390,72.5C 389.535,73.9308 388.701,75.0975 387.5,76C 391.277,78.9109 392.444,82.7442 391,87.5C 390.167,88.3333 389.333,89.1667 388.5,90C 382.577,91.3041 376.577,91.8041 370.5,91.5C 370.5,81.5 370.5,71.5 370.5,61.5 Z"/></g>
<g><path style="opacity:1" fill="#fcfcfc" d="M 398.5,61.5 C 399.833,61.5 401.167,61.5 402.5,61.5C 402.5,70.1667 402.5,78.8333 402.5,87.5C 406.833,87.5 411.167,87.5 415.5,87.5C 415.5,88.8333 415.5,90.1667 415.5,91.5C 409.833,91.5 404.167,91.5 398.5,91.5C 398.5,81.5 398.5,71.5 398.5,61.5 Z"/></g>
<g><path style="opacity:1" fill="#efefef" d="M 419.5,61.5 C 425.833,61.5 432.167,61.5 438.5,61.5C 438.5,62.8333 438.5,64.1667 438.5,65.5C 433.833,65.5 429.167,65.5 424.5,65.5C 424.5,68.5 424.5,71.5 424.5,74.5C 428.5,74.5 432.5,74.5 436.5,74.5C 436.5,75.8333 436.5,77.1667 436.5,78.5C 432.5,78.5 428.5,78.5 424.5,78.5C 424.5,81.5 424.5,84.5 424.5,87.5C 429.167,87.5 433.833,87.5 438.5,87.5C 438.5,88.8333 438.5,90.1667 438.5,91.5C 432.167,91.5 425.833,91.5 419.5,91.5C 419.5,81.5 419.5,71.5 419.5,61.5 Z"/></g>
<g><path style="opacity:1" fill="#eeeeee" d="M 458.5,60.5 C 464.138,59.8177 468.471,61.8177 471.5,66.5C 470.372,67.2621 469.205,67.9288 468,68.5C 465.336,64.1653 462.003,63.4987 458,66.5C 457.08,69.3083 457.913,71.4749 460.5,73C 466.732,73.5875 470.732,76.7542 472.5,82.5C 472.141,89.0244 468.641,92.3578 462,92.5C 457.178,92.0154 454.012,89.5154 452.5,85C 452.667,83.5 453.5,82.6667 455,82.5C 457.074,85.0779 459.574,87.0779 462.5,88.5C 468.316,87.5612 469.649,84.7279 466.5,80C 462.714,78.6074 459.048,76.9407 455.5,75C 452.209,69.1693 453.209,64.336 458.5,60.5 Z"/></g>
<g><path style="opacity:1" fill="#f8f8f8" d="M 477.5,61.5 C 478.833,61.5 480.167,61.5 481.5,61.5C 481.334,68.8409 481.5,76.1742 482,83.5C 486.333,90.1667 490.667,90.1667 495,83.5C 495.5,76.1742 495.666,68.8409 495.5,61.5C 496.833,61.5 498.167,61.5 499.5,61.5C 499.666,69.1739 499.5,76.8406 499,84.5C 496.204,90.9671 491.37,93.4671 484.5,92C 482,90.8333 480.167,89 479,86.5C 477.594,78.2508 477.094,69.9174 477.5,61.5 Z"/></g>
<g><path style="opacity:1" fill="#eeeeee" d="M 506.5,61.5 C 512.732,60.9386 518.732,61.772 524.5,64C 528.127,70.5734 526.794,75.7401 520.5,79.5C 523.043,83.4206 525.71,87.2539 528.5,91C 526.421,91.8077 524.421,91.641 522.5,90.5C 520.136,87.3015 517.97,83.9681 516,80.5C 514.644,79.6198 513.144,79.2865 511.5,79.5C 511.5,83.5 511.5,87.5 511.5,91.5C 509.833,91.5 508.167,91.5 506.5,91.5C 506.5,81.5 506.5,71.5 506.5,61.5 Z"/></g>
<g><path style="opacity:1" fill="#30a852" d="M 125.5,98.5 C 116.473,106.86 107.806,115.527 99.5,124.5C 99.1667,124.5 98.8333,124.5 98.5,124.5C 81.8333,107.167 64.8333,90.1667 47.5,73.5C 50.3294,65.4182 55.996,61.9182 64.5,63C 85.2241,74.3552 105.557,86.1885 125.5,98.5 Z"/></g>
<g><path style="opacity:1" fill="#0a0d0d" d="M 271.5,65.5 C 275.257,65.0708 278.757,65.7375 282,67.5C 282.839,70.1396 282.339,72.4729 280.5,74.5C 277.579,75.4066 274.579,75.7399 271.5,75.5C 271.5,72.1667 271.5,68.8333 271.5,65.5 Z"/></g>
<g><path style="opacity:1" fill="#0f1111" d="M 303.5,64.5 C 315.472,65.7639 319.305,72.0972 315,83.5C 308.958,90.1531 302.958,90.1531 297,83.5C 292.928,74.9857 295.095,68.6523 303.5,64.5 Z"/></g>
<g><path style="opacity:1" fill="#0a0c0c" d="M 375.5,65.5 C 378.518,65.3354 381.518,65.502 384.5,66C 387.167,68.6667 387.167,71.3333 384.5,74C 381.518,74.498 378.518,74.6646 375.5,74.5C 375.5,71.5 375.5,68.5 375.5,65.5 Z"/></g>
<g><path style="opacity:1" fill="#0a0c0c" d="M 511.5,65.5 C 515.257,65.0708 518.757,65.7375 522,67.5C 522.839,70.1396 522.339,72.4729 520.5,74.5C 517.579,75.4066 514.579,75.7399 511.5,75.5C 511.5,72.1667 511.5,68.8333 511.5,65.5 Z"/></g>
<g><path style="opacity:1" fill="#0e1010" d="M 204.5,65.5 C 218.102,64.9164 222.602,70.9164 218,83.5C 214.265,87.0961 209.765,88.4294 204.5,87.5C 204.5,80.1667 204.5,72.8333 204.5,65.5 Z"/></g>
<g><path style="opacity:1" fill="#537dbe" d="M 47.5,73.5 C 64.8333,90.1667 81.8333,107.167 98.5,124.5C 81.8333,141.833 64.8333,158.833 47.5,175.5C 47.5,141.5 47.5,107.5 47.5,73.5 Z"/></g>
<g><path style="opacity:1" fill="#0c0e0e" d="M 375.5,78.5 C 378.85,78.335 382.183,78.5017 385.5,79C 388.167,81.6667 388.167,84.3333 385.5,87C 382.183,87.4983 378.85,87.665 375.5,87.5C 375.5,84.5 375.5,81.5 375.5,78.5 Z"/></g>
<g><path style="opacity:1" fill="#f8ba13" d="M 125.5,98.5 C 135.694,103.85 145.528,109.85 155,116.5C 159.091,123.942 157.924,130.442 151.5,136C 142.94,141.111 134.274,145.944 125.5,150.5C 116.5,142.167 107.833,133.5 99.5,124.5C 107.806,115.527 116.473,106.86 125.5,98.5 Z"/></g>
<g><path style="opacity:1" fill="#f9f8f8" d="M 247.5,151.5 C 248.434,150.432 248.768,149.099 248.5,147.5C 241.833,147.5 235.167,147.5 228.5,147.5C 228.5,144.833 228.5,142.167 228.5,139.5C 238.25,139.194 247.916,139.527 257.5,140.5C 256.418,166.406 243.085,176.906 217.5,172C 200.239,164.313 193.406,151.146 197,132.5C 207.785,110.337 224.285,104.837 246.5,116C 247.5,117 248.5,118 249.5,119C 247.615,121.222 245.449,123.056 243,124.5C 226.628,114.848 214.295,118.514 206,135.5C 204.39,156.89 214.223,166.39 235.5,164C 241.747,161.921 245.747,157.754 247.5,151.5 Z"/></g>
<g><path style="opacity:1" fill="#f6f5f5" d="M 394.5,112.5 C 397.5,112.5 400.5,112.5 403.5,112.5C 403.5,132.5 403.5,152.5 403.5,172.5C 400.5,172.5 397.5,172.5 394.5,172.5C 394.5,152.5 394.5,132.5 394.5,112.5 Z"/></g>
<g><path style="opacity:1" fill="#fafafa" d="M 465.5,112.5 C 475.247,112.08 484.914,112.58 494.5,114C 508.048,122.032 510.048,132.366 500.5,145C 497.785,146.908 494.785,148.241 491.5,149C 485.843,149.499 480.176,149.666 474.5,149.5C 474.5,157.167 474.5,164.833 474.5,172.5C 471.5,172.5 468.5,172.5 465.5,172.5C 465.5,152.5 465.5,132.5 465.5,112.5 Z"/></g>
<g><path style="opacity:1" fill="#f6f5f5" d="M 511.5,112.5 C 514.5,112.5 517.5,112.5 520.5,112.5C 520.5,132.5 520.5,152.5 520.5,172.5C 517.5,172.5 514.5,172.5 511.5,172.5C 511.5,152.5 511.5,132.5 511.5,112.5 Z"/></g>
<g><path style="opacity:1" fill="#969493" d="M 488.5,121.5 C 483.833,121.5 479.167,121.5 474.5,121.5C 474.5,128.167 474.5,134.833 474.5,141.5C 473.509,134.687 473.175,127.687 473.5,120.5C 478.695,120.179 483.695,120.513 488.5,121.5 Z"/></g>
<g><path style="opacity:1" fill="#0a0c0c" d="M 488.5,121.5 C 494.999,122.814 497.832,126.814 497,133.5C 495.833,137.333 493.333,139.833 489.5,141C 484.511,141.499 479.511,141.666 474.5,141.5C 474.5,134.833 474.5,128.167 474.5,121.5C 479.167,121.5 483.833,121.5 488.5,121.5 Z"/></g>
<g><path style="opacity:1" fill="#e84436" d="M 98.5,124.5 C 98.8333,124.5 99.1667,124.5 99.5,124.5C 107.833,133.5 116.5,142.167 125.5,150.5C 105.557,162.812 85.2241,174.645 64.5,186C 55.996,187.082 50.3294,183.582 47.5,175.5C 64.8333,158.833 81.8333,141.833 98.5,124.5 Z"/></g>
<g><path style="opacity:1" fill="#f6f6f6" d="M 276.5,132.5 C 297.001,133.492 304.501,143.825 299,163.5C 293.05,172.042 284.883,175.209 274.5,173C 262.404,167.063 258.237,157.563 262,144.5C 265.515,138.811 270.348,134.811 276.5,132.5 Z"/></g>
<g><path style="opacity:1" fill="#f7f7f7" d="M 321.5,132.5 C 341.373,133.252 348.873,143.252 344,162.5C 337.412,172.868 328.245,176.035 316.5,172C 306.173,165.019 303.006,155.519 307,143.5C 310.514,138.003 315.348,134.337 321.5,132.5 Z"/></g>
<g><path style="opacity:1" fill="#f8f7f7" d="M 365.5,132.5 C 370.795,131.741 375.462,133.074 379.5,136.5C 382.212,134.74 385.212,134.073 388.5,134.5C 388.667,149.17 388.5,163.837 388,178.5C 383.273,189.876 374.773,194.043 362.5,191C 357.116,188.628 353.616,184.795 352,179.5C 354.192,178.601 356.358,177.601 358.5,176.5C 364.005,184.499 370.505,185.499 378,179.5C 380.351,176.399 380.851,173.066 379.5,169.5C 366.9,176.8 357.4,173.8 351,160.5C 347.653,146.859 352.487,137.525 365.5,132.5 Z"/></g>
<g><path style="opacity:1" fill="#f8f8f8" d="M 423.5,132.5 C 434.297,132.066 441.63,136.899 445.5,147C 436.68,151.576 427.68,155.909 418.5,160C 425.131,167.153 431.965,167.32 439,160.5C 441.411,161.624 443.578,163.124 445.5,165C 438.542,173.437 429.876,175.771 419.5,172C 409.178,165.035 406.011,155.535 410,143.5C 413.244,138.07 417.744,134.403 423.5,132.5 Z"/></g>
<g><path style="opacity:1" fill="#f5f4f4" d="M 537.5,132.5 C 547.858,131.426 555.358,135.426 560,144.5C 560.5,153.827 560.666,163.161 560.5,172.5C 557.5,172.5 554.5,172.5 551.5,172.5C 551.657,171.127 551.49,169.793 551,168.5C 542.685,175.464 534.685,175.131 527,167.5C 523.501,153.804 529.001,146.804 543.5,146.5C 546.336,146.706 549.002,147.373 551.5,148.5C 550.789,144.618 548.456,142.118 544.5,141C 539.935,140.282 536.269,141.782 533.5,145.5C 525.783,144.035 524.783,140.869 530.5,136C 532.925,134.787 535.259,133.621 537.5,132.5 Z"/></g>
<g><path style="opacity:1" fill="#636160" d="M 570.5,134.5 C 567.287,134.19 564.287,134.523 561.5,135.5C 560.957,135.44 560.624,135.107 560.5,134.5C 563.98,133.194 567.313,133.194 570.5,134.5 Z"/></g>
<g><path style="opacity:1" fill="#f9f8f8" d="M 570.5,134.5 C 574.09,142.764 577.59,151.097 581,159.5C 584.333,151.5 587.667,143.5 591,135.5C 594.409,134.378 597.909,134.211 601.5,135C 593.096,152.975 585.096,171.142 577.5,189.5C 574.216,190.657 570.882,190.824 567.5,190C 570.648,183.539 573.648,177.039 576.5,170.5C 571.763,158.696 566.763,147.03 561.5,135.5C 564.287,134.523 567.287,134.19 570.5,134.5 Z"/></g>
<g><path style="opacity:1" fill="#6e6c6c" d="M 257.5,140.5 C 247.916,139.527 238.25,139.194 228.5,139.5C 228.5,142.167 228.5,144.833 228.5,147.5C 235.167,147.5 241.833,147.5 248.5,147.5C 248.768,149.099 248.434,150.432 247.5,151.5C 247.5,150.5 247.5,149.5 247.5,148.5C 240.833,148.5 234.167,148.5 227.5,148.5C 227.5,145.167 227.5,141.833 227.5,138.5C 237.889,137.859 247.889,138.526 257.5,140.5 Z"/></g>
<g><path style="opacity:1" fill="#0b0d0d" d="M 276.5,141.5 C 288.267,140.434 293.434,145.767 292,157.5C 285.785,167.15 278.785,167.816 271,159.5C 267.967,151.924 269.8,145.924 276.5,141.5 Z"/></g>
<g><path style="opacity:1" fill="#0c0e0e" d="M 323.5,140.5 C 335.433,142.303 339.266,148.97 335,160.5C 330.752,165.596 325.585,166.763 319.5,164C 314.912,159.811 313.412,154.645 315,148.5C 317.098,144.897 319.932,142.23 323.5,140.5 Z"/></g>
<g><path style="opacity:1" fill="#0b0e0d" d="M 365.5,141.5 C 377.41,140.289 382.243,145.623 380,157.5C 377.747,163.926 373.247,166.426 366.5,165C 356.255,157.491 355.922,149.657 365.5,141.5 Z"/></g>
<g><path style="opacity:1" fill="#151615" d="M 425.5,140.5 C 429.387,139.945 432.387,141.279 434.5,144.5C 429.077,147.295 423.577,149.962 418,152.5C 417.294,150.029 417.627,147.695 419,145.5C 420.965,143.45 423.132,141.783 425.5,140.5 Z"/></g>
<g><path style="opacity:1" fill="#0e1010" d="M 538.5,154.5 C 542.881,154.372 547.215,154.705 551.5,155.5C 549.943,163.22 545.277,166.387 537.5,165C 533.336,161.005 533.669,157.505 538.5,154.5 Z"/></g>
</svg>
