<svg width="750" height="1751" viewBox="0 0 750 1751" fill="none" xmlns="http://www.w3.org/2000/svg">
<path d="M451.5 2C338.7 19.3176 44.6931 250.886 133.733 240.627C149.784 238.777 164.739 230.672 175.93 219.018C214.02 179.352 209.864 132.121 187.277 130.754C176.072 130.076 166.128 137.67 156.589 143.585C63.4124 201.367 -118.101 486.12 119.626 687.611C130.507 696.833 143.218 704.401 157.345 706.371C185.423 710.286 228.146 706.093 265.626 671.568C326.569 615.428 249.588 501.546 164.589 550.467C79.5899 599.389 118.08 723.697 222.324 749.361C326.569 775.024 370.672 779.836 401.945 814.322C433.219 848.807 471.709 906.55 446.049 989.155C421.873 1066.98 297.336 1111.35 309.161 991.473C310.735 975.521 316.906 960.278 325.623 946.825C402.712 827.843 487.895 812.718 514.208 812.718C537.549 812.718 685.144 818.594 629.594 996.966C624.404 1013.63 615.014 1028.7 603.777 1042.06C534.125 1124.84 420.664 1272.45 401.945 1330C387.244 1376.83 372.503 1471.5 401.945 1532.5C435.018 1601.02 508.503 1702 748.503 1749" stroke="#CE4A39" stroke-width="3" stroke-linecap="round"/>
</svg>
