<svg width="288" height="891" viewBox="0 0 288 891" fill="none" xmlns="http://www.w3.org/2000/svg">
<path d="M216.597 2C-32.4737 2 -29.906 70.8169 50.4374 112.187C61.0253 116.4 136.861 125.222 159.581 103.771C187.982 76.9574 164.989 32.6166 120.07 43.9625C78.0605 54.5737 41.8425 122.912 90.4222 135.17C139.002 147.427 159.555 149.726 174.129 166.197C188.703 182.668 206.64 210.248 194.682 249.703C184.311 283.92 134.31 304.596 130.725 263.007C129.373 247.324 136.252 232.099 145.408 219.295C179.393 171.771 214.958 165.431 226.446 165.431C236.74 165.431 298.9 167.945 283.586 240.436C280.02 257.316 270.392 272.092 259.603 285.557C227.147 326.062 182.119 387.323 174.129 412.5C167.278 434.869 160.408 480.084 174.129 509.22C189.542 541.948 468.702 832.568 34.5482 889" stroke="#CE4A39" stroke-width="3" stroke-linecap="round"/>
</svg>
