<svg width="182" height="21" viewBox="0 0 182 21" fill="none" xmlns="http://www.w3.org/2000/svg">
<path d="M0.0284091 16L2.44318 1.45455H8.72159C9.80114 1.45455 10.7102 1.66761 11.4489 2.09375C12.1875 2.51989 12.7178 3.11884 13.0398 3.89062C13.3617 4.66241 13.4375 5.56439 13.267 6.59659C13.0966 7.64773 12.7178 8.55445 12.1307 9.31676C11.5483 10.0743 10.8049 10.6591 9.90057 11.071C9.00095 11.4782 7.99242 11.6818 6.875 11.6818H3.125L3.63636 8.61364H6.59091C7.06439 8.61364 7.48106 8.53314 7.84091 8.37216C8.20076 8.20644 8.49195 7.97443 8.71449 7.67614C8.93703 7.37311 9.08144 7.01326 9.14773 6.59659C9.21402 6.17992 9.18324 5.82481 9.0554 5.53125C8.93229 5.23295 8.71922 5.00568 8.41619 4.84943C8.1179 4.68845 7.73674 4.60795 7.27273 4.60795H5.88068L3.97727 16H0.0284091ZM13.2102 16L15.0284 5.09091H18.8352L18.4943 7.16477H18.608C18.9347 6.39773 19.3442 5.83665 19.8366 5.48153C20.3291 5.12642 20.8665 4.94886 21.4489 4.94886C21.6193 4.94886 21.7827 4.96307 21.9389 4.99148C22.0999 5.01515 22.2585 5.0483 22.4148 5.09091L21.8466 8.44318C21.6619 8.37216 21.4323 8.32244 21.1577 8.29403C20.883 8.26089 20.6392 8.24432 20.4261 8.24432C20.0473 8.24432 19.6922 8.33191 19.3608 8.5071C19.0341 8.67756 18.7547 8.91903 18.5227 9.23153C18.2955 9.5393 18.1439 9.90152 18.0682 10.3182L17.1307 16H13.2102ZM26.456 16.1989C25.2912 16.1989 24.3253 15.9763 23.5582 15.5312C22.7912 15.0814 22.2514 14.4375 21.9389 13.5994C21.6264 12.7566 21.5696 11.7481 21.7685 10.5739C21.9579 9.44697 22.3485 8.46212 22.9403 7.61932C23.5369 6.77651 24.2874 6.12074 25.1918 5.65199C26.1009 5.18324 27.1188 4.94886 28.2457 4.94886C29.0696 4.94886 29.7917 5.0767 30.4119 5.33239C31.0369 5.58807 31.5459 5.95975 31.9389 6.44744C32.3319 6.93513 32.5971 7.52462 32.7344 8.21591C32.8764 8.90246 32.8764 9.67898 32.7344 10.5455L32.5923 11.4545H22.848L23.1889 9.29545H29.3253C29.3726 8.98295 29.3419 8.70833 29.233 8.47159C29.1288 8.23011 28.9607 8.04309 28.7287 7.91051C28.5014 7.7732 28.2268 7.70455 27.9048 7.70455C27.5829 7.70455 27.2798 7.7732 26.9957 7.91051C26.7164 8.04782 26.4773 8.23958 26.2784 8.4858C26.0843 8.73201 25.9541 9.02083 25.8878 9.35227L25.4616 11.625C25.4048 11.9754 25.4261 12.2879 25.5256 12.5625C25.625 12.8371 25.7978 13.0526 26.044 13.2088C26.2902 13.3651 26.6075 13.4432 26.9957 13.4432C27.2609 13.4432 27.5118 13.4077 27.7486 13.3366C27.9901 13.2609 28.2031 13.152 28.3878 13.0099C28.5772 12.8632 28.7287 12.6856 28.8423 12.4773H32.4219C32.1662 13.2348 31.7614 13.893 31.2074 14.4517C30.6581 15.0057 29.9811 15.4366 29.1761 15.7443C28.3759 16.0473 27.4692 16.1989 26.456 16.1989ZM27.0526 3.72727L28.956 0.545454H32.3082L29.6378 3.72727H27.0526ZM32.7717 20.0909L35.2859 5.09091H39.1779L38.8654 6.99432H38.9506C39.1495 6.625 39.4099 6.28646 39.7319 5.97869C40.0586 5.66619 40.4421 5.41761 40.8825 5.23295C41.3275 5.04356 41.82 4.94886 42.3597 4.94886C43.0794 4.94886 43.7305 5.14062 44.3129 5.52415C44.8952 5.90767 45.3237 6.51136 45.5984 7.33523C45.873 8.15909 45.9014 9.22917 45.6836 10.5455C45.4753 11.8049 45.1036 12.849 44.5685 13.6776C44.0382 14.5062 43.4132 15.1241 42.6935 15.5312C41.9786 15.9384 41.2328 16.142 40.4563 16.142C39.945 16.142 39.5022 16.0592 39.1282 15.8935C38.7541 15.723 38.4535 15.4934 38.2262 15.2045C37.9989 14.911 37.8427 14.5795 37.7575 14.2102H37.6722L36.7063 20.0909H32.7717ZM38.212 10.5455C38.1268 11.0758 38.1197 11.535 38.1907 11.9233C38.2665 12.3068 38.4156 12.6051 38.6381 12.8182C38.8654 13.0265 39.159 13.1307 39.5188 13.1307C39.8787 13.1307 40.2006 13.0289 40.4847 12.8253C40.7688 12.617 41.0103 12.321 41.2092 11.9375C41.408 11.5492 41.5548 11.0852 41.6495 10.5455C41.7347 10.0057 41.7418 9.54403 41.6708 9.16051C41.5998 8.77225 41.4554 8.47633 41.2376 8.27273C41.0198 8.06439 40.7309 7.96023 40.3711 7.96023C40.0112 7.96023 39.6822 8.06439 39.3839 8.27273C39.0903 8.47633 38.8417 8.77225 38.6381 9.16051C38.4393 9.54403 38.2972 10.0057 38.212 10.5455ZM49.4247 16.1705C48.7334 16.1705 48.1392 16.0568 47.642 15.8295C47.1496 15.5975 46.7898 15.2472 46.5625 14.7784C46.34 14.3049 46.2902 13.7083 46.4134 12.9886C46.5128 12.392 46.6998 11.883 46.9744 11.4616C47.2491 11.0402 47.59 10.6946 47.9972 10.4247C48.4044 10.1548 48.8613 9.94886 49.3679 9.80682C49.8793 9.66004 50.419 9.56534 50.9872 9.52273C51.6027 9.47538 52.1023 9.41619 52.4858 9.34517C52.8693 9.27415 53.1558 9.17708 53.3452 9.05398C53.5346 8.93087 53.6482 8.76515 53.6861 8.55682V8.52841C53.7287 8.24432 53.6529 8.02652 53.4588 7.875C53.2694 7.72348 53.0043 7.64773 52.6634 7.64773C52.294 7.64773 51.9744 7.72822 51.7045 7.8892C51.4394 8.05019 51.2571 8.30114 51.1577 8.64205H47.5497C47.7012 7.97917 48.0114 7.36837 48.4801 6.80966C48.9536 6.24621 49.581 5.7964 50.3622 5.46023C51.1482 5.11932 52.0857 4.94886 53.1747 4.94886C53.9512 4.94886 54.633 5.04119 55.2202 5.22585C55.8073 5.40578 56.2926 5.65909 56.6761 5.9858C57.0644 6.30777 57.3366 6.68655 57.4929 7.12216C57.6539 7.55303 57.6918 8.02178 57.6065 8.52841L56.3565 16H52.6918L52.9474 14.4659H52.8622C52.5781 14.8731 52.2585 15.2022 51.9034 15.4531C51.553 15.7041 51.1695 15.8864 50.7528 16C50.3409 16.1136 49.8982 16.1705 49.4247 16.1705ZM51.1293 13.6989C51.4228 13.6989 51.7116 13.6373 51.9957 13.5142C52.2798 13.3911 52.5237 13.2135 52.7273 12.9815C52.9309 12.7495 53.0611 12.4678 53.1179 12.1364L53.2599 11.2273C53.1558 11.2699 53.0398 11.3101 52.9119 11.348C52.7888 11.3812 52.6586 11.4143 52.5213 11.4474C52.3887 11.4806 52.2467 11.5114 52.0952 11.5398C51.9484 11.5682 51.7969 11.5966 51.6406 11.625C51.3281 11.6723 51.0653 11.7505 50.8523 11.8594C50.6392 11.9635 50.4735 12.0938 50.3551 12.25C50.2367 12.4015 50.1634 12.572 50.1349 12.7614C50.0923 13.0597 50.161 13.2917 50.3409 13.4574C50.5256 13.6184 50.7884 13.6989 51.1293 13.6989ZM58.2298 16L60.0479 5.09091H63.8548L63.5138 7.16477H63.6275C63.9542 6.39773 64.3638 5.83665 64.8562 5.48153C65.3486 5.12642 65.886 4.94886 66.4684 4.94886C66.6388 4.94886 66.8022 4.96307 66.9585 4.99148C67.1194 5.01515 67.2781 5.0483 67.4343 5.09091L66.8661 8.44318C66.6815 8.37216 66.4518 8.32244 66.1772 8.29403C65.9026 8.26089 65.6587 8.24432 65.4457 8.24432C65.0669 8.24432 64.7118 8.33191 64.3803 8.5071C64.0536 8.67756 63.7743 8.91903 63.5423 9.23153C63.315 9.5393 63.1635 9.90152 63.0877 10.3182L62.1502 16H58.2298ZM71.4755 16.1989C70.3107 16.1989 69.3448 15.9763 68.5778 15.5312C67.8107 15.0814 67.271 14.4375 66.9585 13.5994C66.646 12.7566 66.5891 11.7481 66.788 10.5739C66.9774 9.44697 67.368 8.46212 67.9599 7.61932C68.5565 6.77651 69.3069 6.12074 70.2113 5.65199C71.1204 5.18324 72.1384 4.94886 73.2653 4.94886C74.0891 4.94886 74.8112 5.0767 75.4315 5.33239C76.0565 5.58807 76.5655 5.95975 76.9585 6.44744C77.3514 6.93513 77.6166 7.52462 77.7539 8.21591C77.896 8.90246 77.896 9.67898 77.7539 10.5455L77.6119 11.4545H67.8675L68.2085 9.29545H74.3448C74.3922 8.98295 74.3614 8.70833 74.2525 8.47159C74.1483 8.23011 73.9802 8.04309 73.7482 7.91051C73.521 7.7732 73.2463 7.70455 72.9244 7.70455C72.6024 7.70455 72.2994 7.7732 72.0153 7.91051C71.7359 8.04782 71.4968 8.23958 71.2979 8.4858C71.1038 8.73201 70.9736 9.02083 70.9073 9.35227L70.4812 11.625C70.4244 11.9754 70.4457 12.2879 70.5451 12.5625C70.6445 12.8371 70.8174 13.0526 71.0636 13.2088C71.3098 13.3651 71.627 13.4432 72.0153 13.4432C72.2804 13.4432 72.5314 13.4077 72.7681 13.3366C73.0096 13.2609 73.2227 13.152 73.4073 13.0099C73.5967 12.8632 73.7482 12.6856 73.8619 12.4773H77.4414C77.1857 13.2348 76.7809 13.893 76.2269 14.4517C75.6777 15.0057 75.0006 15.4366 74.1957 15.7443C73.3955 16.0473 72.4888 16.1989 71.4755 16.1989ZM90.2983 11.2273L91.321 5.09091H95.2415L93.4233 16H89.7017L90.0426 13.9261H89.929C89.5928 14.6222 89.0909 15.1667 88.4233 15.5597C87.7604 15.9479 87.0218 16.142 86.2074 16.142C85.4451 16.142 84.8082 15.9669 84.2969 15.6165C83.7855 15.2661 83.4233 14.7831 83.2102 14.1676C82.9972 13.5521 82.9545 12.8466 83.0824 12.0511L84.2472 5.09091H88.1676L87.1449 11.2273C87.0644 11.767 87.133 12.1908 87.3509 12.4986C87.5734 12.8063 87.9309 12.9602 88.4233 12.9602C88.75 12.9602 89.0436 12.8916 89.304 12.7543C89.5691 12.6122 89.7869 12.4134 89.9574 12.1577C90.1326 11.8973 90.2462 11.5871 90.2983 11.2273ZM100.389 9.86364L99.3661 16H95.4457L97.2638 5.09091H100.985L100.645 7.16477H100.758C101.104 6.46875 101.608 5.92661 102.271 5.53835C102.939 5.14536 103.675 4.94886 104.48 4.94886C105.252 4.94886 105.893 5.12405 106.404 5.47443C106.916 5.82481 107.278 6.30777 107.491 6.9233C107.704 7.53883 107.742 8.24432 107.605 9.03977L106.44 16H102.52L103.542 9.86364C103.632 9.32386 103.566 8.90009 103.343 8.59233C103.126 8.28456 102.766 8.13068 102.264 8.13068C101.947 8.13068 101.655 8.2017 101.39 8.34375C101.13 8.48106 100.912 8.67992 100.737 8.94034C100.566 9.19602 100.45 9.50379 100.389 9.86364ZM120.698 5.09091L120.215 7.93182H112.914L113.397 5.09091H120.698ZM112.956 16L114.831 4.77841C114.978 3.87879 115.26 3.13305 115.676 2.54119C116.098 1.94934 116.626 1.50663 117.26 1.21307C117.9 0.919507 118.614 0.772726 119.405 0.772726C119.907 0.772726 120.388 0.810605 120.847 0.886364C121.306 0.962121 121.64 1.02841 121.848 1.08523L120.826 3.89773C120.688 3.85511 120.53 3.82197 120.35 3.7983C120.17 3.76989 120.007 3.75568 119.86 3.75568C119.495 3.75568 119.235 3.83381 119.078 3.99006C118.927 4.14631 118.828 4.35227 118.78 4.60795L116.877 16H112.956ZM125.245 16.1989C124.08 16.1989 123.114 15.9763 122.347 15.5312C121.58 15.0814 121.04 14.4375 120.728 13.5994C120.415 12.7566 120.359 11.7481 120.558 10.5739C120.747 9.44697 121.138 8.46212 121.729 7.61932C122.326 6.77651 123.076 6.12074 123.981 5.65199C124.89 5.18324 125.908 4.94886 127.035 4.94886C127.859 4.94886 128.581 5.0767 129.201 5.33239C129.826 5.58807 130.335 5.95975 130.728 6.44744C131.121 6.93513 131.386 7.52462 131.523 8.21591C131.665 8.90246 131.665 9.67898 131.523 10.5455L131.381 11.4545H121.637L121.978 9.29545H128.114C128.162 8.98295 128.131 8.70833 128.022 8.47159C127.918 8.23011 127.75 8.04309 127.518 7.91051C127.29 7.7732 127.016 7.70455 126.694 7.70455C126.372 7.70455 126.069 7.7732 125.785 7.91051C125.505 8.04782 125.266 8.23958 125.067 8.4858C124.873 8.73201 124.743 9.02083 124.677 9.35227L124.251 11.625C124.194 11.9754 124.215 12.2879 124.315 12.5625C124.414 12.8371 124.587 13.0526 124.833 13.2088C125.079 13.3651 125.397 13.4432 125.785 13.4432C126.05 13.4432 126.301 13.4077 126.538 13.3366C126.779 13.2609 126.992 13.152 127.177 13.0099C127.366 12.8632 127.518 12.6856 127.631 12.4773H131.211C130.955 13.2348 130.55 13.893 129.996 14.4517C129.447 15.0057 128.77 15.4366 127.965 15.7443C127.165 16.0473 126.258 16.1989 125.245 16.1989ZM143.379 8.64205H139.856C139.875 8.41477 139.835 8.22064 139.735 8.05966C139.636 7.89867 139.496 7.77557 139.316 7.69034C139.141 7.60511 138.942 7.5625 138.72 7.5625C138.332 7.5625 137.979 7.65009 137.662 7.82528C137.344 7.99574 137.167 8.22064 137.129 8.5C137.105 8.6089 137.141 8.7107 137.235 8.8054C137.33 8.90009 137.579 8.98769 137.981 9.06818L140.14 9.46591C141.22 9.66477 142.006 10.027 142.498 10.5526C142.995 11.0734 143.175 11.7623 143.038 12.6193C142.91 13.3627 142.583 14.0019 142.058 14.5369C141.532 15.072 140.865 15.4839 140.055 15.7727C139.25 16.0568 138.36 16.1989 137.385 16.1989C135.666 16.1989 134.378 15.8556 133.521 15.169C132.669 14.4825 132.28 13.5852 132.356 12.4773H136.163C136.172 12.8324 136.291 13.0999 136.518 13.2798C136.75 13.455 137.058 13.5473 137.441 13.5568C137.858 13.571 138.223 13.4882 138.535 13.3082C138.848 13.1236 139.023 12.8939 139.061 12.6193C139.075 12.4631 139.006 12.3447 138.855 12.2642C138.708 12.1837 138.426 12.1032 138.01 12.0227L136.135 11.6818C135.055 11.4877 134.269 11.0994 133.777 10.517C133.284 9.92992 133.114 9.18182 133.265 8.27273C133.388 7.5483 133.682 6.93987 134.146 6.44744C134.615 5.95502 135.23 5.58333 135.993 5.33239C136.755 5.0767 137.636 4.94886 138.635 4.94886C140.268 4.94886 141.504 5.27794 142.342 5.93608C143.185 6.58949 143.53 7.49148 143.379 8.64205ZM152.296 5.09091L151.813 7.93182H144.625L145.108 5.09091H152.296ZM146.926 2.47727H150.847L149.185 12.4915C149.161 12.643 149.166 12.7708 149.199 12.875C149.232 12.9744 149.299 13.0502 149.398 13.1023C149.502 13.1496 149.64 13.1733 149.81 13.1733C149.924 13.1733 150.063 13.1591 150.229 13.1307C150.395 13.0975 150.52 13.0739 150.605 13.0597L150.719 15.8153C150.52 15.8722 150.253 15.9361 149.917 16.0071C149.585 16.0829 149.199 16.1326 148.759 16.1562C147.84 16.1989 147.092 16.1018 146.515 15.8651C145.942 15.6283 145.544 15.259 145.321 14.7571C145.104 14.2505 145.066 13.6184 145.208 12.8608L146.926 2.47727ZM152.077 16L153.896 5.09091H157.816L155.998 16H152.077ZM156.026 3.95455C155.496 3.95455 155.067 3.77936 154.741 3.42898C154.414 3.07386 154.293 2.65246 154.379 2.16477C154.464 1.66761 154.724 1.24621 155.16 0.900568C155.595 0.550189 156.078 0.375 156.609 0.375C157.144 0.375 157.57 0.550189 157.887 0.900568C158.204 1.24621 158.323 1.66761 158.242 2.16477C158.166 2.65246 157.911 3.07386 157.475 3.42898C157.044 3.77936 156.561 3.95455 156.026 3.95455ZM162.967 9.86364L161.944 16H158.024L159.842 5.09091H163.564L163.223 7.16477H163.336C163.682 6.46875 164.186 5.92661 164.849 5.53835C165.517 5.14536 166.253 4.94886 167.058 4.94886C167.83 4.94886 168.471 5.12405 168.983 5.47443C169.494 5.82481 169.856 6.30777 170.069 6.9233C170.282 7.53883 170.32 8.24432 170.183 9.03977L169.018 16H165.098L166.12 9.86364C166.21 9.32386 166.144 8.90009 165.922 8.59233C165.704 8.28456 165.344 8.13068 164.842 8.13068C164.525 8.13068 164.234 8.2017 163.968 8.34375C163.708 8.48106 163.49 8.67992 163.315 8.94034C163.145 9.19602 163.029 9.50379 162.967 9.86364ZM181.841 1.45455L179.824 11.4545H176.614L177.892 1.45455H181.841ZM177.58 16.2273C177.026 16.2273 176.574 16.0355 176.223 15.652C175.878 15.2637 175.733 14.7926 175.79 14.2386C175.847 13.6989 176.091 13.2372 176.522 12.8537C176.957 12.4702 177.452 12.2784 178.006 12.2784C178.532 12.2784 178.97 12.4702 179.32 12.8537C179.675 13.2372 179.824 13.6989 179.767 14.2386C179.73 14.608 179.599 14.9441 179.377 15.2472C179.159 15.5455 178.889 15.7846 178.567 15.9645C178.25 16.1397 177.921 16.2273 177.58 16.2273Z" fill="black"/>
</svg>
