<svg width="167" height="21" viewBox="0 0 167 21" fill="none" xmlns="http://www.w3.org/2000/svg">
<path d="M0.0284091 16L2.44318 1.45455H8.72159C9.80114 1.45455 10.7126 1.65104 11.456 2.04403C12.1993 2.43703 12.7344 3.00284 13.0611 3.74148C13.3878 4.48011 13.4659 5.36553 13.2955 6.39773C13.125 7.43939 12.7486 8.31771 12.1662 9.03267C11.5885 9.7429 10.8523 10.2827 9.95739 10.652C9.06724 11.0166 8.06818 11.1989 6.96023 11.1989H3.21023L3.72159 8.13068H6.67614C7.14015 8.13068 7.54735 8.07386 7.89773 7.96023C8.24811 7.84186 8.5322 7.6572 8.75 7.40625C8.9678 7.15057 9.10985 6.81439 9.17614 6.39773C9.24242 5.98106 9.20928 5.64252 9.0767 5.3821C8.94413 5.11695 8.72396 4.92282 8.41619 4.79972C8.10843 4.67187 7.72727 4.60795 7.27273 4.60795H5.88068L3.97727 16H0.0284091ZM9.65909 9.32386L12.1875 16H7.89773L5.45455 9.32386H9.65909ZM18.6044 16.1989C17.4396 16.1989 16.4737 15.9763 15.7067 15.5312C14.9396 15.0814 14.3999 14.4375 14.0874 13.5994C13.7749 12.7566 13.718 11.7481 13.9169 10.5739C14.1063 9.44697 14.4969 8.46212 15.0888 7.61932C15.6854 6.77651 16.4358 6.12074 17.3402 5.65199C18.2493 5.18324 19.2673 4.94886 20.3942 4.94886C21.218 4.94886 21.9401 5.0767 22.5604 5.33239C23.1854 5.58807 23.6944 5.95975 24.0874 6.44744C24.4804 6.93513 24.7455 7.52462 24.8828 8.21591C25.0249 8.90246 25.0249 9.67898 24.8828 10.5455L24.7408 11.4545H14.9964L15.3374 9.29545H21.4737C21.5211 8.98295 21.4903 8.70833 21.3814 8.47159C21.2772 8.23011 21.1091 8.04309 20.8771 7.91051C20.6499 7.7732 20.3752 7.70455 20.0533 7.70455C19.7313 7.70455 19.4283 7.7732 19.1442 7.91051C18.8648 8.04782 18.6257 8.23958 18.4268 8.4858C18.2327 8.73201 18.1025 9.02083 18.0362 9.35227L17.6101 11.625C17.5533 11.9754 17.5746 12.2879 17.674 12.5625C17.7734 12.8371 17.9463 13.0526 18.1925 13.2088C18.4387 13.3651 18.7559 13.4432 19.1442 13.4432C19.4093 13.4432 19.6603 13.4077 19.897 13.3366C20.1385 13.2609 20.3516 13.152 20.5362 13.0099C20.7256 12.8632 20.8771 12.6856 20.9908 12.4773H24.5703C24.3146 13.2348 23.9098 13.893 23.3558 14.4517C22.8066 15.0057 22.1295 15.4366 21.3246 15.7443C20.5244 16.0473 19.6177 16.1989 18.6044 16.1989ZM25.6019 16L27.4201 5.09091H31.1417L30.8008 7.16477H30.9144C31.2506 6.48295 31.7264 5.94318 32.342 5.54545C32.9575 5.14773 33.6464 4.94886 34.4087 4.94886C35.171 4.94886 35.796 5.15246 36.2837 5.55966C36.7714 5.96212 37.0176 6.49716 37.0224 7.16477H37.136C37.4296 6.49716 37.9102 5.96212 38.5778 5.55966C39.2454 5.15246 39.9864 4.94886 40.8008 4.94886C41.8377 4.94886 42.6261 5.28504 43.1658 5.95739C43.7103 6.62973 43.8879 7.52462 43.6985 8.64205L42.4769 16H38.5565L39.636 9.63636C39.7023 9.15814 39.636 8.78409 39.4371 8.5142C39.2383 8.23958 38.9353 8.10227 38.5281 8.10227C38.1256 8.10227 37.7847 8.23958 37.5053 8.5142C37.2307 8.78409 37.0603 9.15814 36.994 9.63636L35.9144 16H32.1644L33.244 9.63636C33.3103 9.15814 33.244 8.78409 33.0451 8.5142C32.8462 8.23958 32.5432 8.10227 32.136 8.10227C31.8709 8.10227 31.6294 8.16383 31.4116 8.28693C31.1985 8.41004 31.021 8.58759 30.8789 8.8196C30.7416 9.04687 30.6493 9.31913 30.6019 9.63636L29.5224 16H25.6019ZM43.7287 20.0909L46.2429 5.09091H50.1349L49.8224 6.99432H49.9077C50.1065 6.625 50.367 6.28646 50.6889 5.97869C51.0156 5.66619 51.3991 5.41761 51.8395 5.23295C52.2846 5.04356 52.777 4.94886 53.3168 4.94886C54.0365 4.94886 54.6875 5.14062 55.2699 5.52415C55.8523 5.90767 56.2808 6.51136 56.5554 7.33523C56.83 8.15909 56.8584 9.22917 56.6406 10.5455C56.4323 11.8049 56.0606 12.849 55.5256 13.6776C54.9953 14.5062 54.3703 15.1241 53.6506 15.5312C52.9356 15.9384 52.1899 16.142 51.4134 16.142C50.902 16.142 50.4593 16.0592 50.0852 15.8935C49.7112 15.723 49.4105 15.4934 49.1832 15.2045C48.956 14.911 48.7997 14.5795 48.7145 14.2102H48.6293L47.6634 20.0909H43.7287ZM49.169 10.5455C49.0838 11.0758 49.0767 11.535 49.1477 11.9233C49.2235 12.3068 49.3726 12.6051 49.5952 12.8182C49.8224 13.0265 50.116 13.1307 50.4759 13.1307C50.8357 13.1307 51.1577 13.0289 51.4418 12.8253C51.7259 12.617 51.9673 12.321 52.1662 11.9375C52.3651 11.5492 52.5118 11.0852 52.6065 10.5455C52.6918 10.0057 52.6989 9.54403 52.6278 9.16051C52.5568 8.77225 52.4124 8.47633 52.1946 8.27273C51.9768 8.06439 51.688 7.96023 51.3281 7.96023C50.9683 7.96023 50.6392 8.06439 50.3409 8.27273C50.0473 8.47633 49.7988 8.77225 49.5952 9.16051C49.3963 9.54403 49.2543 10.0057 49.169 10.5455ZM63.7056 1.45455L61.2908 16H57.3704L59.7852 1.45455H63.7056ZM63.2884 16L65.1065 5.09091H69.027L67.2088 16H63.2884ZM67.2372 3.95455C66.7069 3.95455 66.2784 3.77936 65.9517 3.42898C65.625 3.07386 65.5043 2.65246 65.5895 2.16477C65.6747 1.66761 65.9351 1.24621 66.3707 0.900568C66.8063 0.550189 67.2893 0.375 67.8196 0.375C68.3546 0.375 68.7808 0.550189 69.098 0.900568C69.4152 1.24621 69.5336 1.66761 69.4531 2.16477C69.3774 2.65246 69.1217 3.07386 68.6861 3.42898C68.2552 3.77936 67.7723 3.95455 67.2372 3.95455ZM77.5302 5.09091L77.0472 7.93182H69.8597L70.3427 5.09091H77.5302ZM72.1609 2.47727H76.0813L74.4194 12.4915C74.3957 12.643 74.4004 12.7708 74.4336 12.875C74.4667 12.9744 74.533 13.0502 74.6325 13.1023C74.7366 13.1496 74.8739 13.1733 75.0444 13.1733C75.158 13.1733 75.2977 13.1591 75.4634 13.1307C75.6291 13.0975 75.7546 13.0739 75.8398 13.0597L75.9535 15.8153C75.7546 15.8722 75.4871 15.9361 75.1509 16.0071C74.8195 16.0829 74.4336 16.1326 73.9933 16.1562C73.0747 16.1989 72.3266 16.1018 71.7489 15.8651C71.176 15.6283 70.7783 15.259 70.5558 14.7571C70.3379 14.2505 70.3001 13.6184 70.4421 12.8608L72.1609 2.47727ZM89.62 5.09091L89.1371 7.93182H81.9496L82.4325 5.09091H89.62ZM84.2507 2.47727H88.1712L86.5092 12.4915C86.4856 12.643 86.4903 12.7708 86.5234 12.875C86.5566 12.9744 86.6229 13.0502 86.7223 13.1023C86.8265 13.1496 86.9638 13.1733 87.1342 13.1733C87.2479 13.1733 87.3875 13.1591 87.5533 13.1307C87.719 13.0975 87.8445 13.0739 87.9297 13.0597L88.0433 15.8153C87.8445 15.8722 87.5769 15.9361 87.2408 16.0071C86.9093 16.0829 86.5234 16.1326 86.0831 16.1562C85.1645 16.1989 84.4164 16.1018 83.8388 15.8651C83.2659 15.6283 82.8681 15.259 82.6456 14.7571C82.4278 14.2505 82.3899 13.6184 82.532 12.8608L84.2507 2.47727ZM94.5117 16.1989C93.328 16.1989 92.3526 15.9645 91.5856 15.4957C90.8233 15.0223 90.2882 14.3641 89.9805 13.5213C89.6727 12.6738 89.6112 11.6913 89.7958 10.5739C89.9805 9.45644 90.3664 8.47633 90.9535 7.63352C91.5406 6.78598 92.2958 6.12784 93.2191 5.65909C94.1424 5.18561 95.1983 4.94886 96.3867 4.94886C97.5657 4.94886 98.5363 5.18561 99.2987 5.65909C100.066 6.12784 100.603 6.78598 100.911 7.63352C101.223 8.47633 101.287 9.45644 101.103 10.5739C100.918 11.6913 100.53 12.6738 99.9379 13.5213C99.346 14.3641 98.5884 15.0223 97.6651 15.4957C96.7466 15.9645 95.6954 16.1989 94.5117 16.1989ZM94.9947 13.3011C95.3356 13.3011 95.6457 13.1899 95.9251 12.9673C96.2092 12.7448 96.4506 12.4276 96.6495 12.0156C96.8531 11.6037 97.0022 11.1136 97.0969 10.5455C97.1916 9.97254 97.2058 9.48248 97.1396 9.07528C97.0733 8.66335 96.936 8.34612 96.7276 8.12358C96.5193 7.90104 96.2447 7.78977 95.9038 7.78977C95.5629 7.78977 95.2504 7.90104 94.9663 8.12358C94.6822 8.34612 94.4407 8.66335 94.2418 9.07528C94.043 9.48248 93.8962 9.97254 93.8015 10.5455C93.7068 11.1136 93.6902 11.6037 93.7518 12.0156C93.8181 12.4276 93.9554 12.7448 94.1637 12.9673C94.3768 13.1899 94.6538 13.3011 94.9947 13.3011ZM106.756 9.86364L105.733 16H101.813L103.631 5.09091H107.353L107.012 7.16477H107.125C107.471 6.46875 107.975 5.92661 108.638 5.53835C109.306 5.14536 110.042 4.94886 110.847 4.94886C111.619 4.94886 112.26 5.12405 112.772 5.47443C113.283 5.82481 113.645 6.30777 113.858 6.9233C114.071 7.53883 114.109 8.24432 113.972 9.03977L112.807 16H108.887L109.909 9.86364C109.999 9.32386 109.933 8.90009 109.711 8.59233C109.493 8.28456 109.133 8.13068 108.631 8.13068C108.314 8.13068 108.023 8.2017 107.757 8.34375C107.497 8.48106 107.279 8.67992 107.104 8.94034C106.934 9.19602 106.818 9.50379 106.756 9.86364ZM127.065 5.09091L126.582 7.93182H119.281L119.764 5.09091H127.065ZM119.324 16L121.199 4.77841C121.345 3.87879 121.627 3.13305 122.044 2.54119C122.465 1.94934 122.993 1.50663 123.627 1.21307C124.267 0.919507 124.982 0.772726 125.772 0.772726C126.274 0.772726 126.755 0.810605 127.214 0.886364C127.673 0.962121 128.007 1.02841 128.216 1.08523L127.193 3.89773C127.056 3.85511 126.897 3.82197 126.717 3.7983C126.537 3.76989 126.374 3.75568 126.227 3.75568C125.862 3.75568 125.602 3.83381 125.446 3.99006C125.294 4.14631 125.195 4.35227 125.147 4.60795L123.244 16H119.324ZM126.745 16L128.564 5.09091H132.37L132.029 7.16477H132.143C132.47 6.39773 132.879 5.83665 133.372 5.48153C133.864 5.12642 134.402 4.94886 134.984 4.94886C135.154 4.94886 135.318 4.96307 135.474 4.99148C135.635 5.01515 135.794 5.0483 135.95 5.09091L135.382 8.44318C135.197 8.37216 134.967 8.32244 134.693 8.29403C134.418 8.26089 134.174 8.24432 133.961 8.24432C133.583 8.24432 133.227 8.33191 132.896 8.5071C132.569 8.67756 132.29 8.91903 132.058 9.23153C131.831 9.5393 131.679 9.90152 131.603 10.3182L130.666 16H126.745ZM135.417 16L137.235 5.09091H141.156L139.338 16H135.417ZM139.366 3.95455C138.836 3.95455 138.407 3.77936 138.081 3.42898C137.754 3.07386 137.633 2.65246 137.718 2.16477C137.804 1.66761 138.064 1.24621 138.5 0.900568C138.935 0.550189 139.418 0.375 139.949 0.375C140.484 0.375 140.91 0.550189 141.227 0.900568C141.544 1.24621 141.663 1.66761 141.582 2.16477C141.506 2.65246 141.251 3.07386 140.815 3.42898C140.384 3.77936 139.901 3.95455 139.366 3.95455ZM145.909 20.3182C144.811 20.3182 143.897 20.1619 143.168 19.8494C142.443 19.5417 141.908 19.1155 141.562 18.571C141.222 18.0313 141.08 17.411 141.136 16.7102H144.915C144.924 16.947 144.993 17.1364 145.121 17.2784C145.249 17.4205 145.426 17.5223 145.653 17.5838C145.881 17.6454 146.146 17.6761 146.449 17.6761C146.96 17.6761 147.403 17.5507 147.777 17.2997C148.151 17.0535 148.381 16.6108 148.466 15.9716L148.778 14.125H148.665C148.466 14.4943 148.198 14.8092 147.862 15.0696C147.526 15.3253 147.14 15.5218 146.705 15.6591C146.269 15.7917 145.805 15.858 145.312 15.858C144.536 15.858 143.852 15.678 143.26 15.3182C142.673 14.9583 142.247 14.3878 141.982 13.6065C141.721 12.8253 141.695 11.8049 141.903 10.5455C142.121 9.22917 142.505 8.15909 143.054 7.33523C143.603 6.51136 144.235 5.90767 144.95 5.52415C145.665 5.14062 146.383 4.94886 147.102 4.94886C147.642 4.94886 148.099 5.04356 148.473 5.23295C148.847 5.41761 149.145 5.66619 149.368 5.97869C149.59 6.28646 149.744 6.625 149.83 6.99432H149.915L150.227 5.09091H154.148L152.33 15.9716C152.188 16.8996 151.825 17.6856 151.243 18.3295C150.665 18.9782 149.917 19.4706 148.999 19.8068C148.085 20.1477 147.055 20.3182 145.909 20.3182ZM147.216 13.0739C147.576 13.0739 147.902 12.9744 148.196 12.7756C148.49 12.572 148.738 12.2831 148.942 11.9091C149.145 11.5303 149.29 11.0758 149.375 10.5455C149.46 10.0057 149.465 9.54403 149.389 9.16051C149.313 8.77225 149.164 8.47633 148.942 8.27273C148.719 8.06439 148.428 7.96023 148.068 7.96023C147.708 7.96023 147.384 8.06439 147.095 8.27273C146.806 8.47633 146.562 8.77225 146.364 9.16051C146.165 9.54403 146.023 10.0057 145.938 10.5455C145.852 11.0852 145.845 11.5445 145.916 11.9233C145.987 12.2973 146.132 12.5838 146.349 12.7827C146.567 12.9768 146.856 13.0739 147.216 13.0739ZM159.551 16.1989C158.367 16.1989 157.392 15.9645 156.625 15.4957C155.862 15.0223 155.327 14.3641 155.02 13.5213C154.712 12.6738 154.65 11.6913 154.835 10.5739C155.02 9.45644 155.405 8.47633 155.993 7.63352C156.58 6.78598 157.335 6.12784 158.258 5.65909C159.181 5.18561 160.237 4.94886 161.426 4.94886C162.605 4.94886 163.575 5.18561 164.338 5.65909C165.105 6.12784 165.642 6.78598 165.95 7.63352C166.262 8.47633 166.326 9.45644 166.142 10.5739C165.957 11.6913 165.569 12.6738 164.977 13.5213C164.385 14.3641 163.627 15.0223 162.704 15.4957C161.786 15.9645 160.734 16.1989 159.551 16.1989ZM160.034 13.3011C160.375 13.3011 160.685 13.1899 160.964 12.9673C161.248 12.7448 161.49 12.4276 161.689 12.0156C161.892 11.6037 162.041 11.1136 162.136 10.5455C162.231 9.97254 162.245 9.48248 162.179 9.07528C162.112 8.66335 161.975 8.34612 161.767 8.12358C161.558 7.90104 161.284 7.78977 160.943 7.78977C160.602 7.78977 160.289 7.90104 160.005 8.12358C159.721 8.34612 159.48 8.66335 159.281 9.07528C159.082 9.48248 158.935 9.97254 158.841 10.5455C158.746 11.1136 158.729 11.6037 158.791 12.0156C158.857 12.4276 158.994 12.7448 159.203 12.9673C159.416 13.1899 159.693 13.3011 160.034 13.3011Z" fill="black"/>
</svg>
