<svg width="179" height="41" viewBox="0 0 179 41" fill="none" xmlns="http://www.w3.org/2000/svg">
<path d="M9.51705 6C9.55966 5.53125 9.44602 5.1643 9.17614 4.89915C8.90625 4.62926 8.4517 4.49432 7.8125 4.49432C7.4053 4.49432 7.06439 4.54167 6.78977 4.63636C6.51989 4.73106 6.30919 4.86127 6.15767 5.02699C6.01089 5.19271 5.91856 5.38447 5.88068 5.60227C5.83807 5.77273 5.84044 5.92898 5.88778 6.07102C5.93987 6.20833 6.03693 6.33381 6.17898 6.44744C6.32576 6.56108 6.51752 6.66288 6.75426 6.75284C6.99574 6.8428 7.2822 6.9233 7.61364 6.99432L8.75 7.25C9.52652 7.42045 10.1776 7.64536 10.7031 7.92472C11.2334 8.19934 11.6501 8.52604 11.9531 8.90483C12.2562 9.28362 12.455 9.70739 12.5497 10.1761C12.6491 10.6449 12.6515 11.1562 12.5568 11.7102C12.3958 12.6667 12.0241 13.4763 11.4418 14.1392C10.8594 14.8021 10.0994 15.3063 9.16193 15.652C8.22443 15.9976 7.14015 16.1705 5.90909 16.1705C4.64962 16.1705 3.57955 15.9834 2.69886 15.6094C1.82292 15.2306 1.18845 14.6529 0.795455 13.8764C0.407197 13.0952 0.3125 12.0985 0.511364 10.8864H4.26136C4.20455 11.3314 4.25189 11.7055 4.40341 12.0085C4.55492 12.3116 4.79877 12.5412 5.13494 12.6974C5.47112 12.8537 5.89015 12.9318 6.39205 12.9318C6.81818 12.9318 7.18277 12.8797 7.4858 12.7756C7.78883 12.6714 8.02794 12.527 8.20312 12.3423C8.37831 12.1577 8.48485 11.947 8.52273 11.7102C8.56061 11.4924 8.52273 11.2983 8.40909 11.1278C8.29545 10.9574 8.08949 10.8035 7.79119 10.6662C7.4929 10.5289 7.08333 10.4034 6.5625 10.2898L5.17045 9.97727C3.93466 9.69318 3.00189 9.22443 2.37216 8.57102C1.74242 7.91761 1.51989 7.02273 1.70455 5.88636C1.85606 4.95833 2.23722 4.14867 2.84801 3.45739C3.46354 2.76136 4.24479 2.22159 5.19176 1.83807C6.14347 1.44981 7.19697 1.25568 8.35227 1.25568C9.52652 1.25568 10.509 1.45218 11.2997 1.84517C12.0952 2.23816 12.6657 2.78977 13.0114 3.5C13.3617 4.21023 13.4564 5.04356 13.2955 6H9.51705ZM18.6328 16.1989C17.4491 16.1989 16.4737 15.9645 15.7067 15.4957C14.9396 15.0223 14.4022 14.3641 14.0945 13.5213C13.7867 12.6738 13.7275 11.6913 13.9169 10.5739C14.0968 9.45644 14.4804 8.47633 15.0675 7.63352C15.6593 6.78598 16.4169 6.12784 17.3402 5.65909C18.2682 5.18561 19.3241 4.94886 20.5078 4.94886C21.5779 4.94886 22.4704 5.14299 23.1854 5.53125C23.9051 5.91477 24.4188 6.45928 24.7266 7.16477C25.0391 7.86553 25.1196 8.68939 24.968 9.63636H21.3317C21.3743 9.06818 21.282 8.63258 21.0547 8.32955C20.8321 8.02652 20.5078 7.875 20.0817 7.875C19.7313 7.875 19.4093 7.97443 19.1158 8.1733C18.8269 8.36742 18.5784 8.66335 18.37 9.06108C18.1664 9.45407 18.0173 9.94886 17.9226 10.5455C17.8279 11.142 17.8161 11.6392 17.8871 12.0369C17.9628 12.4299 18.1096 12.7259 18.3274 12.9247C18.55 13.1188 18.8317 13.2159 19.1726 13.2159C19.4661 13.2159 19.736 13.1496 19.9822 13.017C20.2332 12.8797 20.4486 12.6809 20.6286 12.4205C20.8132 12.1553 20.9529 11.8333 21.0476 11.4545H24.6839C24.504 12.4205 24.1418 13.2585 23.5973 13.9688C23.0528 14.679 22.3591 15.2282 21.5163 15.6165C20.6735 16.0047 19.7124 16.1989 18.6328 16.1989ZM28.5458 16.1705C27.8545 16.1705 27.2603 16.0568 26.7631 15.8295C26.2707 15.5975 25.9109 15.2472 25.6836 14.7784C25.4611 14.3049 25.4113 13.7083 25.5344 12.9886C25.6339 12.392 25.8209 11.883 26.0955 11.4616C26.3701 11.0402 26.7111 10.6946 27.1183 10.4247C27.5254 10.1548 27.9824 9.94886 28.489 9.80682C29.0004 9.66004 29.5401 9.56534 30.1083 9.52273C30.7238 9.47538 31.2234 9.41619 31.6069 9.34517C31.9904 9.27415 32.2769 9.17708 32.4663 9.05398C32.6557 8.93087 32.7693 8.76515 32.8072 8.55682V8.52841C32.8498 8.24432 32.774 8.02652 32.5799 7.875C32.3905 7.72348 32.1254 7.64773 31.7844 7.64773C31.4151 7.64773 31.0955 7.72822 30.8256 7.8892C30.5605 8.05019 30.3782 8.30114 30.2788 8.64205H26.6708C26.8223 7.97917 27.1325 7.36837 27.6012 6.80966C28.0747 6.24621 28.7021 5.7964 29.4833 5.46023C30.2693 5.11932 31.2068 4.94886 32.2958 4.94886C33.0723 4.94886 33.7541 5.04119 34.3413 5.22585C34.9284 5.40578 35.4137 5.65909 35.7972 5.9858C36.1855 6.30777 36.4577 6.68655 36.614 7.12216C36.775 7.55303 36.8129 8.02178 36.7276 8.52841L35.4776 16H31.8129L32.0685 14.4659H31.9833C31.6992 14.8731 31.3796 15.2022 31.0245 15.4531C30.6741 15.7041 30.2906 15.8864 29.8739 16C29.462 16.1136 29.0193 16.1705 28.5458 16.1705ZM30.2504 13.6989C30.5439 13.6989 30.8327 13.6373 31.1168 13.5142C31.4009 13.3911 31.6448 13.2135 31.8484 12.9815C32.052 12.7495 32.1822 12.4678 32.239 12.1364L32.381 11.2273C32.2769 11.2699 32.1609 11.3101 32.033 11.348C31.9099 11.3812 31.7797 11.4143 31.6424 11.4474C31.5098 11.4806 31.3678 11.5114 31.2163 11.5398C31.0695 11.5682 30.918 11.5966 30.7617 11.625C30.4492 11.6723 30.1864 11.7505 29.9734 11.8594C29.7603 11.9635 29.5946 12.0938 29.4762 12.25C29.3578 12.4015 29.2844 12.572 29.256 12.7614C29.2134 13.0597 29.2821 13.2917 29.462 13.4574C29.6467 13.6184 29.9094 13.6989 30.2504 13.6989ZM42.3224 9.86364L41.2997 16H37.3793L39.1974 5.09091H42.919L42.5781 7.16477H42.6918C43.0374 6.46875 43.5417 5.92661 44.2045 5.53835C44.8722 5.14536 45.6084 4.94886 46.4134 4.94886C47.1851 4.94886 47.8267 5.12405 48.3381 5.47443C48.8494 5.82481 49.2116 6.30777 49.4247 6.9233C49.6378 7.53883 49.6757 8.24432 49.5384 9.03977L48.3736 16H44.4531L45.4759 9.86364C45.5658 9.32386 45.4995 8.90009 45.277 8.59233C45.0592 8.28456 44.6993 8.13068 44.1974 8.13068C43.8802 8.13068 43.589 8.2017 43.3239 8.34375C43.0634 8.48106 42.8456 8.67992 42.6705 8.94034C42.5 9.19602 42.384 9.50379 42.3224 9.86364ZM62.5888 5.09091L62.1058 7.93182H54.9183L55.4013 5.09091H62.5888ZM57.2195 2.47727H61.1399L59.478 12.4915C59.4543 12.643 59.459 12.7708 59.4922 12.875C59.5253 12.9744 59.5916 13.0502 59.6911 13.1023C59.7952 13.1496 59.9325 13.1733 60.103 13.1733C60.2166 13.1733 60.3563 13.1591 60.522 13.1307C60.6877 13.0975 60.8132 13.0739 60.8984 13.0597L61.0121 15.8153C60.8132 15.8722 60.5457 15.9361 60.2095 16.0071C59.8781 16.0829 59.4922 16.1326 59.0518 16.1562C58.1333 16.1989 57.3852 16.1018 56.8075 15.8651C56.2346 15.6283 55.8369 15.259 55.6143 14.7571C55.3965 14.2505 55.3587 13.6184 55.5007 12.8608L57.2195 2.47727ZM67.4805 16.1989C66.2968 16.1989 65.3214 15.9645 64.5543 15.4957C63.792 15.0223 63.257 14.3641 62.9492 13.5213C62.6415 12.6738 62.5799 11.6913 62.7646 10.5739C62.9492 9.45644 63.3351 8.47633 63.9222 7.63352C64.5094 6.78598 65.2646 6.12784 66.1879 5.65909C67.1112 5.18561 68.167 4.94886 69.3555 4.94886C70.5344 4.94886 71.5051 5.18561 72.2674 5.65909C73.0344 6.12784 73.5719 6.78598 73.8796 7.63352C74.1921 8.47633 74.256 9.45644 74.0714 10.5739C73.8867 11.6913 73.4985 12.6738 72.9066 13.5213C72.3147 14.3641 71.5572 15.0223 70.6339 15.4957C69.7153 15.9645 68.6642 16.1989 67.4805 16.1989ZM67.9634 13.3011C68.3043 13.3011 68.6145 13.1899 68.8938 12.9673C69.1779 12.7448 69.4194 12.4276 69.6183 12.0156C69.8219 11.6037 69.971 11.1136 70.0657 10.5455C70.1604 9.97254 70.1746 9.48248 70.1083 9.07528C70.042 8.66335 69.9047 8.34612 69.6964 8.12358C69.488 7.90104 69.2134 7.78977 68.8725 7.78977C68.5316 7.78977 68.2191 7.90104 67.935 8.12358C67.6509 8.34612 67.4094 8.66335 67.2106 9.07528C67.0117 9.48248 66.8649 9.97254 66.7702 10.5455C66.6755 11.1136 66.659 11.6037 66.7205 12.0156C66.7868 12.4276 66.9241 12.7448 67.1325 12.9673C67.3455 13.1899 67.6225 13.3011 67.9634 13.3011ZM79.7248 9.86364L78.7021 16H74.7816L76.5998 5.09091H80.3214L79.9805 7.16477H80.0941C80.4397 6.46875 80.944 5.92661 81.6069 5.53835C82.2745 5.14536 83.0108 4.94886 83.8157 4.94886C84.5875 4.94886 85.229 5.12405 85.7404 5.47443C86.2518 5.82481 86.614 6.30777 86.8271 6.9233C87.0401 7.53883 87.078 8.24432 86.9407 9.03977L85.7759 16H81.8555L82.8782 9.86364C82.9682 9.32386 82.9019 8.90009 82.6793 8.59233C82.4615 8.28456 82.1017 8.13068 81.5998 8.13068C81.2826 8.13068 80.9914 8.2017 80.7262 8.34375C80.4658 8.48106 80.248 8.67992 80.0728 8.94034C79.9023 9.19602 79.7863 9.50379 79.7248 9.86364ZM99.9911 5.09091L99.5082 7.93182H92.3207L92.8036 5.09091H99.9911ZM94.6218 2.47727H98.5423L96.8803 12.4915C96.8567 12.643 96.8614 12.7708 96.8945 12.875C96.9277 12.9744 96.994 13.0502 97.0934 13.1023C97.1976 13.1496 97.3349 13.1733 97.5053 13.1733C97.619 13.1733 97.7586 13.1591 97.9244 13.1307C98.0901 13.0975 98.2156 13.0739 98.3008 13.0597L98.4144 15.8153C98.2156 15.8722 97.948 15.9361 97.6119 16.0071C97.2804 16.0829 96.8945 16.1326 96.4542 16.1562C95.5356 16.1989 94.7875 16.1018 94.2099 15.8651C93.637 15.6283 93.2392 15.259 93.0167 14.7571C92.7989 14.2505 92.761 13.6184 92.9031 12.8608L94.6218 2.47727ZM99.7727 16L101.591 5.09091H105.511L103.693 16H99.7727ZM103.722 3.95455C103.191 3.95455 102.763 3.77936 102.436 3.42898C102.109 3.07386 101.989 2.65246 102.074 2.16477C102.159 1.66761 102.42 1.24621 102.855 0.900568C103.291 0.550189 103.774 0.375 104.304 0.375C104.839 0.375 105.265 0.550189 105.582 0.900568C105.9 1.24621 106.018 1.66761 105.938 2.16477C105.862 2.65246 105.606 3.07386 105.17 3.42898C104.74 3.77936 104.257 3.95455 103.722 3.95455ZM110.918 16.1989C109.734 16.1989 108.759 15.9645 107.992 15.4957C107.225 15.0223 106.687 14.3641 106.38 13.5213C106.072 12.6738 106.013 11.6913 106.202 10.5739C106.382 9.45644 106.766 8.47633 107.353 7.63352C107.944 6.78598 108.702 6.12784 109.625 5.65909C110.553 5.18561 111.609 4.94886 112.793 4.94886C113.863 4.94886 114.756 5.14299 115.471 5.53125C116.19 5.91477 116.704 6.45928 117.012 7.16477C117.324 7.86553 117.405 8.68939 117.253 9.63636H113.617C113.659 9.06818 113.567 8.63258 113.34 8.32955C113.117 8.02652 112.793 7.875 112.367 7.875C112.016 7.875 111.694 7.97443 111.401 8.1733C111.112 8.36742 110.864 8.66335 110.655 9.06108C110.452 9.45407 110.302 9.94886 110.208 10.5455C110.113 11.142 110.101 11.6392 110.172 12.0369C110.248 12.4299 110.395 12.7259 110.613 12.9247C110.835 13.1188 111.117 13.2159 111.458 13.2159C111.751 13.2159 112.021 13.1496 112.267 13.017C112.518 12.8797 112.734 12.6809 112.914 12.4205C113.098 12.1553 113.238 11.8333 113.333 11.4545H116.969C116.789 12.4205 116.427 13.2585 115.882 13.9688C115.338 14.679 114.644 15.2282 113.801 15.6165C112.959 16.0047 111.998 16.1989 110.918 16.1989ZM121.768 13.4148L122.564 8.75568H123.075L126.342 5.09091H130.746L125.376 10.8011H124.268L121.768 13.4148ZM117.82 16L120.234 1.45455H124.155L121.74 16H117.82ZM124.553 16L122.763 11.6818L125.803 8.89773L129.041 16H124.553ZM134.698 16.1989C133.533 16.1989 132.567 15.9763 131.8 15.5312C131.033 15.0814 130.494 14.4375 130.181 13.5994C129.869 12.7566 129.812 11.7481 130.011 10.5739C130.2 9.44697 130.591 8.46212 131.183 7.61932C131.779 6.77651 132.53 6.12074 133.434 5.65199C134.343 5.18324 135.361 4.94886 136.488 4.94886C137.312 4.94886 138.034 5.0767 138.654 5.33239C139.279 5.58807 139.788 5.95975 140.181 6.44744C140.574 6.93513 140.839 7.52462 140.977 8.21591C141.119 8.90246 141.119 9.67898 140.977 10.5455L140.835 11.4545H131.09L131.431 9.29545H137.567C137.615 8.98295 137.584 8.70833 137.475 8.47159C137.371 8.23011 137.203 8.04309 136.971 7.91051C136.744 7.7732 136.469 7.70455 136.147 7.70455C135.825 7.70455 135.522 7.7732 135.238 7.91051C134.959 8.04782 134.719 8.23958 134.521 8.4858C134.326 8.73201 134.196 9.02083 134.13 9.35227L133.704 11.625C133.647 11.9754 133.668 12.2879 133.768 12.5625C133.867 12.8371 134.04 13.0526 134.286 13.2088C134.532 13.3651 134.85 13.4432 135.238 13.4432C135.503 13.4432 135.754 13.4077 135.991 13.3366C136.232 13.2609 136.445 13.152 136.63 13.0099C136.819 12.8632 136.971 12.6856 137.085 12.4773H140.664C140.408 13.2348 140.004 13.893 139.45 14.4517C138.9 15.0057 138.223 15.4366 137.418 15.7443C136.618 16.0473 135.711 16.1989 134.698 16.1989ZM149.991 5.09091L149.508 7.93182H142.321L142.804 5.09091H149.991ZM144.622 2.47727H148.542L146.88 12.4915C146.857 12.643 146.861 12.7708 146.895 12.875C146.928 12.9744 146.994 13.0502 147.093 13.1023C147.198 13.1496 147.335 13.1733 147.505 13.1733C147.619 13.1733 147.759 13.1591 147.924 13.1307C148.09 13.0975 148.216 13.0739 148.301 13.0597L148.414 15.8153C148.216 15.8722 147.948 15.9361 147.612 16.0071C147.28 16.0829 146.895 16.1326 146.454 16.1562C145.536 16.1989 144.788 16.1018 144.21 15.8651C143.637 15.6283 143.239 15.259 143.017 14.7571C142.799 14.2505 142.761 13.6184 142.903 12.8608L144.622 2.47727ZM157.692 16.142C156.915 16.142 156.233 15.9384 155.646 15.5312C155.064 15.1241 154.645 14.5062 154.389 13.6776C154.138 12.849 154.117 11.8049 154.325 10.5455C154.543 9.22917 154.924 8.15909 155.469 7.33523C156.018 6.51136 156.648 5.90767 157.358 5.52415C158.073 5.14062 158.79 4.94886 159.51 4.94886C160.05 4.94886 160.507 5.04356 160.881 5.23295C161.259 5.41761 161.56 5.66619 161.783 5.97869C162.005 6.28646 162.157 6.625 162.237 6.99432H162.294L163.217 1.45455H167.138L164.723 16H160.831L161.129 14.2102H161.044C160.831 14.5795 160.559 14.911 160.227 15.2045C159.901 15.4934 159.524 15.723 159.098 15.8935C158.672 16.0592 158.203 16.142 157.692 16.142ZM159.638 13.1307C159.998 13.1307 160.324 13.0265 160.618 12.8182C160.911 12.6051 161.16 12.3068 161.364 11.9233C161.567 11.535 161.712 11.0758 161.797 10.5455C161.887 10.0057 161.894 9.54403 161.818 9.16051C161.742 8.77225 161.591 8.47633 161.364 8.27273C161.141 8.06439 160.85 7.96023 160.49 7.96023C160.13 7.96023 159.806 8.06439 159.517 8.27273C159.228 8.47633 158.984 8.77225 158.786 9.16051C158.591 9.54403 158.449 10.0057 158.359 10.5455C158.269 11.0852 158.258 11.5492 158.324 11.9375C158.395 12.321 158.542 12.617 158.764 12.8253C158.987 13.0289 159.278 13.1307 159.638 13.1307ZM171.847 16.1989C170.682 16.1989 169.716 15.9763 168.949 15.5312C168.182 15.0814 167.642 14.4375 167.33 13.5994C167.017 12.7566 166.96 11.7481 167.159 10.5739C167.348 9.44697 167.739 8.46212 168.331 7.61932C168.928 6.77651 169.678 6.12074 170.582 5.65199C171.491 5.18324 172.509 4.94886 173.636 4.94886C174.46 4.94886 175.182 5.0767 175.803 5.33239C176.428 5.58807 176.937 5.95975 177.33 6.44744C177.723 6.93513 177.988 7.52462 178.125 8.21591C178.267 8.90246 178.267 9.67898 178.125 10.5455L177.983 11.4545H168.239L168.58 9.29545H174.716C174.763 8.98295 174.732 8.70833 174.624 8.47159C174.519 8.23011 174.351 8.04309 174.119 7.91051C173.892 7.7732 173.617 7.70455 173.295 7.70455C172.973 7.70455 172.67 7.7732 172.386 7.91051C172.107 8.04782 171.868 8.23958 171.669 8.4858C171.475 8.73201 171.345 9.02083 171.278 9.35227L170.852 11.625C170.795 11.9754 170.817 12.2879 170.916 12.5625C171.016 12.8371 171.188 13.0526 171.435 13.2088C171.681 13.3651 171.998 13.4432 172.386 13.4432C172.652 13.4432 172.902 13.4077 173.139 13.3366C173.381 13.2609 173.594 13.152 173.778 13.0099C173.968 12.8632 174.119 12.6856 174.233 12.4773H177.812C177.557 13.2348 177.152 13.893 176.598 14.4517C176.049 15.0057 175.372 15.4366 174.567 15.7443C173.767 16.0473 172.86 16.1989 171.847 16.1989ZM57.1094 40.1989C55.9257 40.1989 54.9503 39.9645 54.1832 39.4957C53.4162 39.0223 52.8788 38.3641 52.571 37.5213C52.2633 36.6738 52.2041 35.6913 52.3935 34.5739C52.5734 33.4564 52.9569 32.4763 53.544 31.6335C54.1359 30.786 54.8935 30.1278 55.8168 29.6591C56.7448 29.1856 57.8007 28.9489 58.9844 28.9489C60.0545 28.9489 60.947 29.143 61.6619 29.5312C62.3816 29.9148 62.8954 30.4593 63.2031 31.1648C63.5156 31.8655 63.5961 32.6894 63.4446 33.6364H59.8082C59.8509 33.0682 59.7585 32.6326 59.5312 32.3295C59.3087 32.0265 58.9844 31.875 58.5582 31.875C58.2079 31.875 57.8859 31.9744 57.5923 32.1733C57.3035 32.3674 57.0549 32.6634 56.8466 33.0611C56.643 33.4541 56.4938 33.9489 56.3991 34.5455C56.3045 35.142 56.2926 35.6392 56.3636 36.0369C56.4394 36.4299 56.5862 36.7259 56.804 36.9247C57.0265 37.1188 57.3082 37.2159 57.6491 37.2159C57.9427 37.2159 58.2126 37.1496 58.4588 37.017C58.7098 36.8797 58.9252 36.6809 59.1051 36.4205C59.2898 36.1553 59.4295 35.8333 59.5241 35.4545H63.1605C62.9806 36.4205 62.6184 37.2585 62.0739 37.9688C61.5294 38.679 60.8357 39.2282 59.9929 39.6165C59.1501 40.0047 58.1889 40.1989 57.1094 40.1989ZM67.0224 40.1705C66.3311 40.1705 65.7369 40.0568 65.2397 39.8295C64.7473 39.5975 64.3874 39.2472 64.1602 38.7784C63.9376 38.3049 63.8879 37.7083 64.011 36.9886C64.1104 36.392 64.2975 35.883 64.5721 35.4616C64.8467 35.0402 65.1876 34.6946 65.5948 34.4247C66.002 34.1548 66.4589 33.9489 66.9656 33.8068C67.4769 33.66 68.0167 33.5653 68.5849 33.5227C69.2004 33.4754 69.6999 33.4162 70.0835 33.3452C70.467 33.2741 70.7534 33.1771 70.9428 33.054C71.1322 32.9309 71.2459 32.7652 71.2837 32.5568V32.5284C71.3263 32.2443 71.2506 32.0265 71.0565 31.875C70.8671 31.7235 70.6019 31.6477 70.261 31.6477C69.8917 31.6477 69.5721 31.7282 69.3022 31.8892C69.0371 32.0502 68.8548 32.3011 68.7553 32.642H65.1474C65.2989 31.9792 65.609 31.3684 66.0778 30.8097C66.5513 30.2462 67.1786 29.7964 67.9599 29.4602C68.7459 29.1193 69.6834 28.9489 70.7724 28.9489C71.5489 28.9489 72.2307 29.0412 72.8178 29.2259C73.4049 29.4058 73.8903 29.6591 74.2738 29.9858C74.6621 30.3078 74.9343 30.6866 75.0906 31.1222C75.2515 31.553 75.2894 32.0218 75.2042 32.5284L73.9542 40H70.2894L70.5451 38.4659H70.4599C70.1758 38.8731 69.8562 39.2022 69.5011 39.4531C69.1507 39.7041 68.7672 39.8864 68.3505 40C67.9386 40.1136 67.4959 40.1705 67.0224 40.1705ZM68.7269 37.6989C69.0205 37.6989 69.3093 37.6373 69.5934 37.5142C69.8775 37.3911 70.1213 37.2135 70.3249 36.9815C70.5285 36.7495 70.6587 36.4678 70.7156 36.1364L70.8576 35.2273C70.7534 35.2699 70.6374 35.3101 70.5096 35.348C70.3865 35.3812 70.2563 35.4143 70.119 35.4474C69.9864 35.4806 69.8443 35.5114 69.6928 35.5398C69.546 35.5682 69.3945 35.5966 69.2383 35.625C68.9258 35.6723 68.663 35.7505 68.4499 35.8594C68.2369 35.9635 68.0711 36.0938 67.9528 36.25C67.8344 36.4015 67.761 36.572 67.7326 36.7614C67.69 37.0597 67.7586 37.2917 67.9386 37.4574C68.1232 37.6184 68.386 37.6989 68.7269 37.6989ZM75.8274 40L77.6456 29.0909H81.5661L79.7479 40H75.8274ZM79.7763 27.9545C79.246 27.9545 78.8175 27.7794 78.4908 27.429C78.1641 27.0739 78.0433 26.6525 78.1286 26.1648C78.2138 25.6676 78.4742 25.2462 78.9098 24.9006C79.3454 24.5502 79.8284 24.375 80.3587 24.375C80.8937 24.375 81.3198 24.5502 81.6371 24.9006C81.9543 25.2462 82.0727 25.6676 81.9922 26.1648C81.9164 26.6525 81.6607 27.0739 81.2251 27.429C80.7943 27.7794 80.3113 27.9545 79.7763 27.9545ZM92.9102 32.642H89.3874C89.4064 32.4148 89.3661 32.2206 89.2667 32.0597C89.1673 31.8987 89.0276 31.7756 88.8477 31.6903C88.6725 31.6051 88.4736 31.5625 88.2511 31.5625C87.8628 31.5625 87.5101 31.6501 87.1928 31.8253C86.8756 31.9957 86.698 32.2206 86.6602 32.5C86.6365 32.6089 86.672 32.7107 86.7667 32.8054C86.8614 32.9001 87.11 32.9877 87.5124 33.0682L89.6715 33.4659C90.7511 33.6648 91.5371 34.027 92.0295 34.5526C92.5266 35.0734 92.7066 35.7623 92.5692 36.6193C92.4414 37.3627 92.1147 38.0019 91.5891 38.5369C91.0636 39.072 90.396 39.4839 89.5863 39.7727C88.7814 40.0568 87.8912 40.1989 86.9158 40.1989C85.1971 40.1989 83.9092 39.8556 83.0522 39.169C82.1999 38.4825 81.8117 37.5852 81.8874 36.4773H85.6942C85.7037 36.8324 85.8221 37.0999 86.0494 37.2798C86.2814 37.455 86.5891 37.5473 86.9727 37.5568C87.3893 37.571 87.7539 37.4882 88.0664 37.3082C88.3789 37.1236 88.5541 36.8939 88.592 36.6193C88.6062 36.4631 88.5375 36.3447 88.386 36.2642C88.2392 36.1837 87.9575 36.1032 87.5408 36.0227L85.6658 35.6818C84.5863 35.4877 83.8003 35.0994 83.3079 34.517C82.8155 33.9299 82.645 33.1818 82.7965 32.2727C82.9196 31.5483 83.2132 30.9399 83.6772 30.4474C84.146 29.955 84.7615 29.5833 85.5238 29.3324C86.2861 29.0767 87.1668 28.9489 88.1658 28.9489C89.7994 28.9489 91.0352 29.2779 91.8732 29.9361C92.716 30.5895 93.0617 31.4915 92.9102 32.642ZM104.668 32.642H101.145C101.164 32.4148 101.124 32.2206 101.025 32.0597C100.925 31.8987 100.785 31.7756 100.605 31.6903C100.43 31.6051 100.231 31.5625 100.009 31.5625C99.6206 31.5625 99.2679 31.6501 98.9506 31.8253C98.6334 31.9957 98.4558 32.2206 98.418 32.5C98.3943 32.6089 98.4298 32.7107 98.5245 32.8054C98.6192 32.9001 98.8678 32.9877 99.2702 33.0682L101.429 33.4659C102.509 33.6648 103.295 34.027 103.787 34.5526C104.284 35.0734 104.464 35.7623 104.327 36.6193C104.199 37.3627 103.873 38.0019 103.347 38.5369C102.821 39.072 102.154 39.4839 101.344 39.7727C100.539 40.0568 99.649 40.1989 98.6737 40.1989C96.9549 40.1989 95.667 39.8556 94.81 39.169C93.9577 38.4825 93.5695 37.5852 93.6452 36.4773H97.4521C97.4615 36.8324 97.5799 37.0999 97.8072 37.2798C98.0392 37.455 98.3469 37.5473 98.7305 37.5568C99.1471 37.571 99.5117 37.4882 99.8242 37.3082C100.137 37.1236 100.312 36.8939 100.35 36.6193C100.364 36.4631 100.295 36.3447 100.144 36.2642C99.997 36.1837 99.7153 36.1032 99.2987 36.0227L97.4237 35.6818C96.3441 35.4877 95.5581 35.0994 95.0657 34.517C94.5733 33.9299 94.4028 33.1818 94.5543 32.2727C94.6774 31.5483 94.971 30.9399 95.435 30.4474C95.9038 29.955 96.5193 29.5833 97.2816 29.3324C98.0439 29.0767 98.9246 28.9489 99.9237 28.9489C101.557 28.9489 102.793 29.2779 103.631 29.9361C104.474 30.5895 104.819 31.4915 104.668 32.642ZM110.46 40.1989C109.295 40.1989 108.329 39.9763 107.562 39.5312C106.795 39.0814 106.255 38.4375 105.943 37.5994C105.63 36.7566 105.574 35.7481 105.772 34.5739C105.962 33.447 106.352 32.4621 106.944 31.6193C107.541 30.7765 108.291 30.1207 109.196 29.652C110.105 29.1832 111.123 28.9489 112.25 28.9489C113.074 28.9489 113.796 29.0767 114.416 29.3324C115.041 29.5881 115.55 29.9598 115.943 30.4474C116.336 30.9351 116.601 31.5246 116.738 32.2159C116.88 32.9025 116.88 33.679 116.738 34.5455L116.596 35.4545H106.852L107.193 33.2955H113.329C113.377 32.983 113.346 32.7083 113.237 32.4716C113.133 32.2301 112.965 32.0431 112.733 31.9105C112.505 31.7732 112.231 31.7045 111.909 31.7045C111.587 31.7045 111.284 31.7732 111 31.9105C110.72 32.0478 110.481 32.2396 110.282 32.4858C110.088 32.732 109.958 33.0208 109.892 33.3523L109.466 35.625C109.409 35.9754 109.43 36.2879 109.529 36.5625C109.629 36.8371 109.802 37.0526 110.048 37.2088C110.294 37.3651 110.611 37.4432 111 37.4432C111.265 37.4432 111.516 37.4077 111.752 37.3366C111.994 37.2609 112.207 37.152 112.392 37.0099C112.581 36.8632 112.733 36.6856 112.846 36.4773H116.426C116.17 37.2348 115.765 37.893 115.211 38.4517C114.662 39.0057 113.985 39.4366 113.18 39.7443C112.38 40.0473 111.473 40.1989 110.46 40.1989Z" fill="black"/>
</svg>
