<svg width="107" height="131" viewBox="0 0 107 131" fill="none" xmlns="http://www.w3.org/2000/svg">
<g clip-path="url(#clip0_101_2386)">
<path d="M93.2739 0.109375H34.1992C26.6309 0.109375 20.4732 7.64776 20.4732 16.9137V29.0714H0V91.9877C0 101.254 6.15752 108.792 13.7261 108.792H40.9471V130.89H44.4363H103.511H107V16.914C107 7.64802 100.842 0.109375 93.2739 0.109375ZM20.4736 91.988C20.4736 96.543 17.4466 100.249 13.7261 100.249C10.0055 100.249 6.97841 96.543 6.97841 91.988V37.615H20.4736V91.988ZM40.9474 100.249H25.6716C26.8027 97.808 27.4518 94.99 27.4518 91.9885V16.914C27.4518 12.3589 30.4789 8.65303 34.1995 8.65303C37.92 8.65303 40.9471 12.3589 40.9471 16.914L40.9474 100.249ZM100.022 122.347H47.9253V16.914C47.9253 13.9132 47.2798 11.0939 46.1494 8.65303H93.2739C96.9945 8.65303 100.022 12.3589 100.022 16.914V122.347H100.022Z" fill="black"/>
<path d="M73.973 88.9463H55.377V97.4897H73.973V88.9463Z" fill="black"/>
<path d="M92.5687 21.0742H55.377V29.6176H92.5687V21.0742Z" fill="black"/>
<path d="M92.5687 38.3086H55.377V46.852H92.5687V38.3086Z" fill="black"/>
<path d="M92.5687 55.5439H55.377V64.0873H92.5687V55.5439Z" fill="black"/>
</g>
<defs>
<clipPath id="clip0_101_2386">
<rect width="107" height="131" fill="white"/>
</clipPath>
</defs>
</svg>
